<svg width="202" height="43" viewBox="0 0 202 43" fill="none" xmlns="http://www.w3.org/2000/svg">
<rect width="202" height="43" rx="8" fill="#4F46E5"/>
<rect x="5" y="5" width="33" height="33" rx="8" fill="#222222"/>
<path d="M54.7614 28V13.4545H59.8466C60.8598 13.4545 61.6955 13.6297 62.3537 13.9801C63.0118 14.3258 63.5019 14.7921 63.8239 15.3793C64.1458 15.9616 64.3068 16.608 64.3068 17.3182C64.3068 17.9432 64.1955 18.4593 63.973 18.8665C63.7552 19.2737 63.4664 19.5956 63.1065 19.8324C62.7514 20.0691 62.3655 20.2443 61.9489 20.358V20.5C62.3939 20.5284 62.8414 20.6847 63.2912 20.9688C63.741 21.2528 64.1174 21.66 64.4205 22.1903C64.7235 22.7206 64.875 23.3693 64.875 24.1364C64.875 24.8655 64.7093 25.5213 64.3778 26.1037C64.0464 26.6861 63.5232 27.1477 62.8082 27.4886C62.0933 27.8295 61.1629 28 60.017 28H54.7614ZM56.5227 26.4375H60.017C61.1676 26.4375 61.9844 26.215 62.4673 25.7699C62.955 25.3201 63.1989 24.7756 63.1989 24.1364C63.1989 23.6439 63.0734 23.1894 62.8224 22.7727C62.5715 22.3513 62.214 22.0152 61.75 21.7642C61.286 21.5085 60.7367 21.3807 60.1023 21.3807H56.5227V26.4375ZM56.5227 19.8466H59.7898C60.3201 19.8466 60.7983 19.7424 61.2244 19.5341C61.6553 19.3258 61.9962 19.0322 62.2472 18.6534C62.5028 18.2746 62.6307 17.8295 62.6307 17.3182C62.6307 16.679 62.4081 16.1368 61.9631 15.6918C61.518 15.242 60.8125 15.017 59.8466 15.017H56.5227V19.8466ZM71.9737 28.2273C70.9889 28.2273 70.1248 27.9929 69.3814 27.5241C68.6428 27.0554 68.0651 26.3996 67.6484 25.5568C67.2365 24.714 67.0305 23.7292 67.0305 22.6023C67.0305 21.4659 67.2365 20.474 67.6484 19.6264C68.0651 18.7789 68.6428 18.1207 69.3814 17.652C70.1248 17.1832 70.9889 16.9489 71.9737 16.9489C72.9586 16.9489 73.8203 17.1832 74.5589 17.652C75.3023 18.1207 75.88 18.7789 76.2919 19.6264C76.7086 20.474 76.9169 21.4659 76.9169 22.6023C76.9169 23.7292 76.7086 24.714 76.2919 25.5568C75.88 26.3996 75.3023 27.0554 74.5589 27.5241C73.8203 27.9929 72.9586 28.2273 71.9737 28.2273ZM71.9737 26.7216C72.7218 26.7216 73.3374 26.5298 73.8203 26.1463C74.3033 25.7628 74.6607 25.2585 74.8928 24.6335C75.1248 24.0085 75.2408 23.3314 75.2408 22.6023C75.2408 21.8731 75.1248 21.1937 74.8928 20.5639C74.6607 19.9342 74.3033 19.4252 73.8203 19.0369C73.3374 18.6487 72.7218 18.4545 71.9737 18.4545C71.2256 18.4545 70.6101 18.6487 70.1271 19.0369C69.6442 19.4252 69.2867 19.9342 69.0547 20.5639C68.8227 21.1937 68.7067 21.8731 68.7067 22.6023C68.7067 23.3314 68.8227 24.0085 69.0547 24.6335C69.2867 25.2585 69.6442 25.7628 70.1271 26.1463C70.6101 26.5298 71.2256 26.7216 71.9737 26.7216ZM83.9073 28.2273C82.9225 28.2273 82.0584 27.9929 81.315 27.5241C80.5763 27.0554 79.9987 26.3996 79.582 25.5568C79.1701 24.714 78.9641 23.7292 78.9641 22.6023C78.9641 21.4659 79.1701 20.474 79.582 19.6264C79.9987 18.7789 80.5763 18.1207 81.315 17.652C82.0584 17.1832 82.9225 16.9489 83.9073 16.9489C84.8922 16.9489 85.7539 17.1832 86.4925 17.652C87.2359 18.1207 87.8136 18.7789 88.2255 19.6264C88.6422 20.474 88.8505 21.4659 88.8505 22.6023C88.8505 23.7292 88.6422 24.714 88.2255 25.5568C87.8136 26.3996 87.2359 27.0554 86.4925 27.5241C85.7539 27.9929 84.8922 28.2273 83.9073 28.2273ZM83.9073 26.7216C84.6554 26.7216 85.271 26.5298 85.7539 26.1463C86.2369 25.7628 86.5943 25.2585 86.8263 24.6335C87.0584 24.0085 87.1744 23.3314 87.1744 22.6023C87.1744 21.8731 87.0584 21.1937 86.8263 20.5639C86.5943 19.9342 86.2369 19.4252 85.7539 19.0369C85.271 18.6487 84.6554 18.4545 83.9073 18.4545C83.1592 18.4545 82.5437 18.6487 82.0607 19.0369C81.5778 19.4252 81.2203 19.9342 80.9883 20.5639C80.7563 21.1937 80.6403 21.8731 80.6403 22.6023C80.6403 23.3314 80.7563 24.0085 80.9883 24.6335C81.2203 25.2585 81.5778 25.7628 82.0607 26.1463C82.5437 26.5298 83.1592 26.7216 83.9073 26.7216ZM92.9716 24.0227L92.9432 21.9489H93.2841L98.0568 17.0909H100.131L95.0455 22.233H94.9034L92.9716 24.0227ZM91.4091 28V13.4545H93.0852V28H91.4091ZM98.3409 28L94.0795 22.6023L95.2727 21.4375L100.472 28H98.3409ZM111.123 28.2557C110.432 28.2557 109.805 28.1255 109.241 27.8651C108.678 27.5999 108.23 27.2188 107.899 26.7216C107.567 26.2197 107.402 25.6136 107.402 24.9034C107.402 24.2784 107.525 23.7718 107.771 23.3835C108.017 22.9905 108.346 22.6828 108.758 22.4602C109.17 22.2377 109.625 22.072 110.122 21.9631C110.624 21.8494 111.128 21.7595 111.635 21.6932C112.297 21.608 112.835 21.544 113.247 21.5014C113.663 21.4541 113.967 21.3759 114.156 21.267C114.35 21.1581 114.447 20.9687 114.447 20.6989V20.642C114.447 19.9413 114.255 19.3968 113.872 19.0085C113.493 18.6203 112.918 18.4261 112.146 18.4261C111.346 18.4261 110.718 18.6013 110.264 18.9517C109.809 19.3021 109.49 19.6761 109.305 20.0739L107.714 19.5057C107.998 18.8428 108.377 18.3267 108.85 17.9574C109.329 17.5833 109.85 17.3229 110.413 17.1761C110.981 17.0246 111.54 16.9489 112.089 16.9489C112.44 16.9489 112.842 16.9915 113.297 17.0767C113.756 17.1572 114.199 17.3253 114.625 17.581C115.056 17.8366 115.413 18.2225 115.697 18.7386C115.981 19.2547 116.123 19.946 116.123 20.8125V28H114.447V26.5227H114.362C114.248 26.7595 114.059 27.0128 113.794 27.2827C113.529 27.5526 113.176 27.7822 112.735 27.9716C112.295 28.161 111.758 28.2557 111.123 28.2557ZM111.379 26.75C112.042 26.75 112.6 26.6198 113.055 26.3594C113.514 26.099 113.86 25.7628 114.092 25.3509C114.329 24.9389 114.447 24.5057 114.447 24.0511V22.517C114.376 22.6023 114.22 22.6804 113.978 22.7514C113.742 22.8177 113.467 22.8769 113.154 22.929C112.847 22.9763 112.546 23.0189 112.252 23.0568C111.964 23.09 111.729 23.1184 111.549 23.142C111.114 23.1989 110.707 23.2912 110.328 23.419C109.954 23.5421 109.651 23.7292 109.419 23.9801C109.191 24.2263 109.078 24.5625 109.078 24.9886C109.078 25.571 109.293 26.0114 109.724 26.3097C110.16 26.6032 110.711 26.75 111.379 26.75ZM128.927 28.2273C128.018 28.2273 127.215 27.9976 126.519 27.5384C125.823 27.0743 125.279 26.4209 124.886 25.5781C124.493 24.7306 124.296 23.7292 124.296 22.5739C124.296 21.428 124.493 20.4337 124.886 19.5909C125.279 18.7481 125.826 18.0971 126.526 17.6378C127.227 17.1785 128.037 16.9489 128.955 16.9489C129.665 16.9489 130.227 17.0672 130.638 17.304C131.055 17.536 131.372 17.8011 131.59 18.0994C131.813 18.393 131.986 18.6345 132.109 18.8239H132.251V13.4545H133.927V28H132.308V26.3239H132.109C131.986 26.5227 131.81 26.7737 131.583 27.0767C131.356 27.375 131.031 27.6425 130.61 27.8793C130.189 28.1113 129.628 28.2273 128.927 28.2273ZM129.154 26.7216C129.826 26.7216 130.395 26.5464 130.859 26.196C131.323 25.8409 131.675 25.3509 131.917 24.7259C132.158 24.0961 132.279 23.3693 132.279 22.5455C132.279 21.7311 132.161 21.0185 131.924 20.4077C131.687 19.7921 131.337 19.3139 130.873 18.973C130.409 18.6274 129.836 18.4545 129.154 18.4545C128.444 18.4545 127.852 18.6368 127.379 19.0014C126.91 19.3613 126.557 19.8513 126.32 20.4716C126.088 21.0871 125.972 21.7784 125.972 22.5455C125.972 23.322 126.091 24.0275 126.327 24.6619C126.569 25.2917 126.924 25.7936 127.393 26.1676C127.866 26.5369 128.453 26.7216 129.154 26.7216ZM141.803 28.2273C140.752 28.2273 139.845 27.9953 139.083 27.5312C138.326 27.0625 137.741 26.4091 137.329 25.571C136.922 24.7282 136.718 23.7481 136.718 22.6307C136.718 21.5133 136.922 20.5284 137.329 19.6761C137.741 18.8191 138.314 18.1515 139.048 17.6733C139.786 17.1903 140.648 16.9489 141.633 16.9489C142.201 16.9489 142.762 17.0436 143.316 17.233C143.87 17.4223 144.374 17.7301 144.829 18.1562C145.283 18.5777 145.646 19.1364 145.915 19.8324C146.185 20.5284 146.32 21.3854 146.32 22.4034V23.1136H137.911V21.6648H144.616C144.616 21.0492 144.493 20.5 144.246 20.017C144.005 19.5341 143.659 19.1529 143.21 18.8736C142.764 18.5942 142.239 18.4545 141.633 18.4545C140.965 18.4545 140.388 18.6203 139.9 18.9517C139.417 19.2784 139.045 19.7045 138.785 20.2301C138.524 20.7557 138.394 21.3191 138.394 21.9205V22.8864C138.394 23.7102 138.536 24.4086 138.82 24.9815C139.109 25.5497 139.509 25.983 140.021 26.2812C140.532 26.5748 141.126 26.7216 141.803 26.7216C142.244 26.7216 142.641 26.66 142.996 26.5369C143.356 26.4091 143.666 26.2197 143.927 25.9688C144.187 25.7131 144.388 25.3958 144.531 25.017L146.15 25.4716C145.979 26.0208 145.693 26.5038 145.29 26.9205C144.888 27.3324 144.391 27.6544 143.799 27.8864C143.207 28.1136 142.542 28.2273 141.803 28.2273ZM148.87 28V17.0909H150.489V18.7955H150.631C150.859 18.2131 151.226 17.7609 151.732 17.4389C152.239 17.1122 152.847 16.9489 153.558 16.9489C154.277 16.9489 154.876 17.1122 155.354 17.4389C155.837 17.7609 156.214 18.2131 156.484 18.7955H156.597C156.877 18.232 157.296 17.7846 157.854 17.4531C158.413 17.117 159.083 16.9489 159.864 16.9489C160.84 16.9489 161.638 17.2543 162.258 17.8651C162.878 18.4711 163.188 19.4157 163.188 20.6989V28H161.512V20.6989C161.512 19.8939 161.292 19.3187 160.852 18.973C160.411 18.6274 159.893 18.4545 159.296 18.4545C158.529 18.4545 157.935 18.6866 157.513 19.1506C157.092 19.6098 156.881 20.1922 156.881 20.8977V28H155.177V20.5284C155.177 19.9081 154.976 19.4086 154.573 19.0298C154.171 18.6463 153.652 18.4545 153.018 18.4545C152.582 18.4545 152.175 18.5705 151.796 18.8026C151.422 19.0346 151.119 19.3565 150.887 19.7685C150.66 20.1757 150.546 20.6468 150.546 21.1818V28H148.87ZM170.685 28.2273C169.7 28.2273 168.836 27.9929 168.092 27.5241C167.354 27.0554 166.776 26.3996 166.359 25.5568C165.947 24.714 165.741 23.7292 165.741 22.6023C165.741 21.4659 165.947 20.474 166.359 19.6264C166.776 18.7789 167.354 18.1207 168.092 17.652C168.836 17.1832 169.7 16.9489 170.685 16.9489C171.67 16.9489 172.531 17.1832 173.27 17.652C174.013 18.1207 174.591 18.7789 175.003 19.6264C175.42 20.474 175.628 21.4659 175.628 22.6023C175.628 23.7292 175.42 24.714 175.003 25.5568C174.591 26.3996 174.013 27.0554 173.27 27.5241C172.531 27.9929 171.67 28.2273 170.685 28.2273ZM170.685 26.7216C171.433 26.7216 172.048 26.5298 172.531 26.1463C173.014 25.7628 173.372 25.2585 173.604 24.6335C173.836 24.0085 173.952 23.3314 173.952 22.6023C173.952 21.8731 173.836 21.1937 173.604 20.5639C173.372 19.9342 173.014 19.4252 172.531 19.0369C172.048 18.6487 171.433 18.4545 170.685 18.4545C169.937 18.4545 169.321 18.6487 168.838 19.0369C168.355 19.4252 167.998 19.9342 167.766 20.5639C167.534 21.1937 167.418 21.8731 167.418 22.6023C167.418 23.3314 167.534 24.0085 167.766 24.6335C167.998 25.2585 168.355 25.7628 168.838 26.1463C169.321 26.5298 169.937 26.7216 170.685 26.7216Z" fill="white"/>
</svg>
