<svg width="20" height="21" viewBox="0 0 20 21" fill="none" xmlns="http://www.w3.org/2000/svg">
<path d="M8.6 12.2585L6.425 10.0835C6.24167 9.90016 6.01667 9.8085 5.75 9.8085C5.48333 9.8085 5.25 9.9085 5.05 10.1085C4.86667 10.2918 4.775 10.5252 4.775 10.8085C4.775 11.0918 4.86667 11.3252 5.05 11.5085L7.9 14.3585C8.08333 14.5418 8.31667 14.6335 8.6 14.6335C8.88333 14.6335 9.11667 14.5418 9.3 14.3585L14.975 8.6835C15.1583 8.50016 15.25 8.27516 15.25 8.0085C15.25 7.74183 15.15 7.5085 14.95 7.3085C14.7667 7.12516 14.5333 7.0335 14.25 7.0335C13.9667 7.0335 13.7333 7.12516 13.55 7.3085L8.6 12.2585ZM10 20.4585C8.61667 20.4585 7.31667 20.1958 6.1 19.6705C4.88333 19.1458 3.825 18.4335 2.925 17.5335C2.025 16.6335 1.31267 15.5752 0.788 14.3585C0.262667 13.1418 0 11.8418 0 10.4585C0 9.07516 0.262667 7.77516 0.788 6.5585C1.31267 5.34183 2.025 4.2835 2.925 3.3835C3.825 2.4835 4.88333 1.77083 6.1 1.2455C7.31667 0.720829 8.61667 0.458496 10 0.458496C11.3833 0.458496 12.6833 0.720829 13.9 1.2455C15.1167 1.77083 16.175 2.4835 17.075 3.3835C17.975 4.2835 18.6873 5.34183 19.212 6.5585C19.7373 7.77516 20 9.07516 20 10.4585C20 11.8418 19.7373 13.1418 19.212 14.3585C18.6873 15.5752 17.975 16.6335 17.075 17.5335C16.175 18.4335 15.1167 19.1458 13.9 19.6705C12.6833 20.1958 11.3833 20.4585 10 20.4585Z" fill="#4F46E5"/>
</svg>
