<svg width="403" height="381" viewBox="0 0 403 381" fill="none" xmlns="http://www.w3.org/2000/svg">
<line x1="204" y1="181.5" x2="24" y2="181.5" stroke="url(#paint0_linear_143_65)"/>
<line x1="379" y1="181.5" x2="199" y2="181.5" stroke="url(#paint1_linear_143_65)"/>
<line x1="379.349" y1="6.3585" x2="199.349" y2="181.358" stroke="url(#paint2_linear_143_65)"/>
<line x1="28.6414" y1="355.652" x2="198.641" y2="180.652" stroke="url(#paint3_linear_143_65)"/>
<line x1="203.5" y1="143" x2="203.5" y2="6" stroke="url(#paint4_linear_143_65)"/>
<line x1="203.646" y1="181.354" x2="28.6464" y2="6.35355" stroke="url(#paint5_linear_143_65)"/>
<line x1="378.646" y1="356.354" x2="203.646" y2="181.354" stroke="url(#paint6_linear_143_65)"/>
<line x1="203.5" y1="356" x2="203.5" y2="219" stroke="url(#paint7_linear_143_65)"/>
<circle cx="376" cy="351" r="14.5" fill="#4F46E5" stroke="#444444"/>
<circle cx="237" cy="216" r="14.5" fill="#4F46E5" stroke="#444444"/>
<circle cx="203" cy="366" r="14.5" fill="#4F46E5" stroke="#444444"/>
<circle cx="203" cy="225" r="14.5" fill="#4F46E5" stroke="#444444"/>
<circle cx="39" cy="346" r="14.5" fill="#4F46E5" stroke="#444444"/>
<circle cx="169" cy="210" r="14.5" fill="#4F46E5" stroke="#444444"/>
<circle cx="15" cy="181" r="14.5" fill="#4F46E5" stroke="#444444"/>
<circle cx="39" cy="16" r="14.5" fill="#4F46E5" stroke="#444444"/>
<circle cx="204" cy="16" r="14.5" fill="#4F46E5" stroke="#444444"/>
<circle cx="372" cy="15" r="14.5" fill="#4F46E5" stroke="#444444"/>
<circle cx="388" cy="180" r="14.5" fill="#4F46E5" stroke="#444444"/>
<circle cx="252" cy="181" r="14.5" fill="#4F46E5" stroke="#444444"/>
<circle cx="237" cy="146" r="14.5" fill="#4F46E5" stroke="#444444"/>
<circle cx="204" cy="137" r="14.5" fill="#4F46E5" stroke="#444444"/>
<circle cx="169" cy="146" r="14.5" fill="#4F46E5" stroke="#444444"/>
<circle cx="169" cy="146" r="14.5" fill="#4F46E5" stroke="#444444"/>
<circle cx="154" cy="180" r="14.5" fill="#4F46E5" stroke="#444444"/>
<circle cx="204" cy="181" r="49.5" fill="#262626" stroke="#444444"/>
<defs>
<linearGradient id="paint0_linear_143_65" x1="24" y1="180.5" x2="204" y2="180.5" gradientUnits="userSpaceOnUse">
<stop stop-color="#262626" stop-opacity="0.1"/>
<stop offset="1" stop-color="#262626"/>
</linearGradient>
<linearGradient id="paint1_linear_143_65" x1="199" y1="180.5" x2="379" y2="180.5" gradientUnits="userSpaceOnUse">
<stop stop-color="#262626"/>
<stop offset="1" stop-color="#262626" stop-opacity="0.1"/>
</linearGradient>
<linearGradient id="paint2_linear_143_65" x1="198.651" y1="180.641" x2="378.651" y2="5.6415" gradientUnits="userSpaceOnUse">
<stop stop-color="#262626"/>
<stop offset="1" stop-color="#262626" stop-opacity="0.1"/>
</linearGradient>
<linearGradient id="paint3_linear_143_65" x1="199.359" y1="181.348" x2="29.3586" y2="356.348" gradientUnits="userSpaceOnUse">
<stop stop-color="#262626"/>
<stop offset="1" stop-color="#262626" stop-opacity="0.1"/>
</linearGradient>
<linearGradient id="paint4_linear_143_65" x1="204.5" y1="6" x2="204.5" y2="143" gradientUnits="userSpaceOnUse">
<stop stop-color="#262626" stop-opacity="0.1"/>
<stop offset="1" stop-color="#262626"/>
</linearGradient>
<linearGradient id="paint5_linear_143_65" x1="29.3536" y1="5.64644" x2="204.354" y2="180.646" gradientUnits="userSpaceOnUse">
<stop stop-color="#262626" stop-opacity="0.1"/>
<stop offset="1" stop-color="#262626"/>
</linearGradient>
<linearGradient id="paint6_linear_143_65" x1="204.354" y1="180.646" x2="379.354" y2="355.646" gradientUnits="userSpaceOnUse">
<stop stop-color="#262626"/>
<stop offset="1" stop-color="#262626" stop-opacity="0.1"/>
</linearGradient>
<linearGradient id="paint7_linear_143_65" x1="204.5" y1="219" x2="204.5" y2="356" gradientUnits="userSpaceOnUse">
<stop stop-color="#262626"/>
<stop offset="1" stop-color="#262626" stop-opacity="0.1"/>
</linearGradient>
</defs>
</svg>
