<svg width="648" height="191" viewBox="0 0 648 191" fill="none" xmlns="http://www.w3.org/2000/svg">
<path d="M647.762 81.1917H600.999V95.5H647.762V81.1917Z" fill="#4F46E5" fill-opacity="0.2"/>
<path d="M648 87.2739H601.237V95.5H648V87.2739Z" fill="#4F46E5"/>
<path d="M648 109.808H601.237V95.5H648V109.808Z" fill="#4F46E5" fill-opacity="0.2"/>
<path d="M648 103.726H601.237V95.5H648V103.726Z" fill="#4F46E5"/>
<path d="M601 67.5488H555.351V95.5H601V67.5488Z" fill="#4F46E5" fill-opacity="0.2"/>
<path d="M601.238 79.4304H555.588V95.4999H601.238V79.4304Z" fill="#4F46E5"/>
<path d="M601.238 123.451H555.588V95.5H601.238V123.451Z" fill="#4F46E5" fill-opacity="0.2"/>
<path d="M601.238 111.57H555.588V95.5001H601.238V111.57Z" fill="#4F46E5"/>
<path d="M555.35 54.2386H508.587V95.5H555.35V54.2386Z" fill="#4F46E5" fill-opacity="0.2"/>
<path d="M555.588 71.7783H508.825V95.5H555.588V71.7783Z" fill="#4F46E5"/>
<path d="M555.588 136.761H508.825V95.5H555.588V136.761Z" fill="#4F46E5" fill-opacity="0.2"/>
<path d="M555.588 119.222H508.825V95.5H555.588V119.222Z" fill="#4F46E5"/>
<path d="M508.586 40.5957H462.937V95.4999H508.586V40.5957Z" fill="#4F46E5" fill-opacity="0.2"/>
<path d="M508.824 63.9348H463.175V95.4999H508.824V63.9348Z" fill="#4F46E5"/>
<path d="M508.824 150.404H463.175V95.4999H508.824V150.404Z" fill="#4F46E5" fill-opacity="0.2"/>
<path d="M508.824 127.065H463.175V95.4999H508.824V127.065Z" fill="#4F46E5"/>
<path d="M462.938 26.953H416.175V95.5H462.938V26.953Z" fill="#4F46E5" fill-opacity="0.2"/>
<path d="M463.176 56.0914H416.413V95.5H463.176V56.0914Z" fill="#4F46E5"/>
<path d="M463.176 164.047H416.413V95.5001H463.176V164.047Z" fill="#4F46E5" fill-opacity="0.2"/>
<path d="M463.176 134.909H416.413V95.5H463.176V134.909Z" fill="#4F46E5"/>
<path d="M416.174 13.6428H370.525V95.5H416.174V13.6428Z" fill="#4F46E5" fill-opacity="0.2"/>
<path d="M416.412 48.4392H370.763V95.4999H416.412V48.4392Z" fill="#4F46E5"/>
<path d="M416.412 177.357H370.763V95.5H416.412V177.357Z" fill="#4F46E5" fill-opacity="0.2"/>
<path d="M416.412 142.561H370.763V95.5001H416.412V142.561Z" fill="#4F46E5"/>
<path d="M370.524 0H323.761V95.5H370.524V0Z" fill="#4F46E5" fill-opacity="0.2"/>
<path d="M370.762 40.5958H323.999V95.5H370.762V40.5958Z" fill="#4F46E5"/>
<path d="M370.762 191H323.999V95.5H370.762V191Z" fill="#4F46E5" fill-opacity="0.2"/>
<path d="M370.762 150.404H323.999V95.5H370.762V150.404Z" fill="#4F46E5"/>
<path d="M277 0H323.763V95.5H277V0Z" fill="#4F46E5" fill-opacity="0.2"/>
<path d="M277 40.5958H323.763V95.5H277V40.5958Z" fill="#4F46E5"/>
<path d="M277 191H323.763V95.5H277V191Z" fill="#4F46E5" fill-opacity="0.2"/>
<path d="M277 150.404H323.763V95.5H277V150.404Z" fill="#4F46E5"/>
<path d="M231.588 13.6428H277.237V95.5H231.588V13.6428Z" fill="#4F46E5" fill-opacity="0.2"/>
<path d="M231.588 48.4392H277.237V95.4999H231.588V48.4392Z" fill="#4F46E5"/>
<path d="M231.588 177.357H277.237V95.5H231.588V177.357Z" fill="#4F46E5" fill-opacity="0.2"/>
<path d="M231.588 142.561H277.237V95.5001H231.588V142.561Z" fill="#4F46E5"/>
<path d="M184.824 26.953H231.587V95.5H184.824V26.953Z" fill="#4F46E5" fill-opacity="0.2"/>
<path d="M184.824 56.0914H231.587V95.5H184.824V56.0914Z" fill="#4F46E5"/>
<path d="M184.824 164.047H231.587V95.5H184.824V164.047Z" fill="#4F46E5" fill-opacity="0.2"/>
<path d="M184.824 134.909H231.587V95.5H184.824V134.909Z" fill="#4F46E5"/>
<path d="M139.176 40.5958H184.826V95.5H139.176V40.5958Z" fill="#4F46E5" fill-opacity="0.2"/>
<path d="M139.176 63.9349H184.826V95.5001H139.176V63.9349Z" fill="#4F46E5"/>
<path d="M139.176 150.404H184.826V95.5H139.176V150.404Z" fill="#4F46E5" fill-opacity="0.2"/>
<path d="M139.176 127.065H184.826V95.5001H139.176V127.065Z" fill="#4F46E5"/>
<path d="M92.412 54.2386H139.175V95.5H92.412V54.2386Z" fill="#4F46E5" fill-opacity="0.2"/>
<path d="M92.412 71.7783H139.175V95.5H92.412V71.7783Z" fill="#4F46E5"/>
<path d="M92.412 136.761H139.175V95.5H92.412V136.761Z" fill="#4F46E5" fill-opacity="0.2"/>
<path d="M92.412 119.222H139.175V95.5H92.412V119.222Z" fill="#4F46E5"/>
<path d="M46.7622 67.5488H92.4117V95.5H46.7622V67.5488Z" fill="#4F46E5" fill-opacity="0.2"/>
<path d="M46.7622 79.4304H92.4117V95.4999H46.7622V79.4304Z" fill="#4F46E5"/>
<path d="M46.7622 123.451H92.4117V95.5H46.7622V123.451Z" fill="#4F46E5" fill-opacity="0.2"/>
<path d="M46.7622 111.57H92.4117V95.5001H46.7622V111.57Z" fill="#4F46E5"/>
<path d="M0 81.1917H46.7629V95.5H0V81.1917Z" fill="#4F46E5" fill-opacity="0.2"/>
<path d="M0 87.2739H46.7629V95.5H0V87.2739Z" fill="#4F46E5"/>
<path d="M0 109.808H46.7629V95.5H0V109.808Z" fill="#4F46E5" fill-opacity="0.2"/>
<path d="M0 103.726H46.7629V95.5H0V103.726Z" fill="#4F46E5"/>
</svg>
