<svg width="451" height="330" viewBox="0 0 451 330" fill="none" xmlns="http://www.w3.org/2000/svg">
<path d="M195.542 55H226.5V166.5H195.542V55Z" fill="#4F46E5" fill-opacity="0.2"/>
<path d="M165.32 70.9287H195.541V166.5H165.32V70.9287Z" fill="#4F46E5" fill-opacity="0.2"/>
<path d="M134.36 86.4688H165.319V166.5H134.36V86.4688Z" fill="#4F46E5" fill-opacity="0.2"/>
<path d="M104.14 102.397H134.361V166.5H104.14V102.397Z" fill="#4F46E5" fill-opacity="0.2"/>
<path d="M73.1802 118.326H104.139V166.5H73.1802V118.326Z" fill="#4F46E5" fill-opacity="0.2"/>
<path d="M42.9585 133.866H73.1801V166.5H42.9585V133.866Z" fill="#4F46E5" fill-opacity="0.2"/>
<path d="M12 149.794H42.9588V166.5H12V149.794Z" fill="#4F46E5" fill-opacity="0.2"/>
<path d="M195.542 102.397H226.5V166.5H195.542V102.397Z" fill="#4F46E5"/>
<path d="M165.32 111.555H195.541V166.5H165.32V111.555Z" fill="#4F46E5"/>
<path d="M134.36 120.489H165.319V166.5H134.36V120.489Z" fill="#4F46E5"/>
<path d="M104.14 129.646H134.361V166.5H104.14V129.646Z" fill="#4F46E5"/>
<path d="M73.1802 138.804H104.139V166.5H73.1802V138.804Z" fill="#4F46E5"/>
<path d="M42.9585 147.738H73.1801V166.5H42.9585V147.738Z" fill="#4F46E5"/>
<path d="M12 156.896H42.9588V166.5H12V156.896Z" fill="#4F46E5"/>
<path d="M257.458 55H226.5V166.5H257.458V55Z" fill="#4F46E5" fill-opacity="0.2"/>
<path d="M287.68 70.9287H257.459V166.5H287.68V70.9287Z" fill="#4F46E5" fill-opacity="0.2"/>
<path d="M318.64 86.4688H287.681V166.5H318.64V86.4688Z" fill="#4F46E5" fill-opacity="0.2"/>
<path d="M348.86 102.397H318.639V166.5H348.86V102.397Z" fill="#4F46E5" fill-opacity="0.2"/>
<path d="M379.82 118.326H348.861V166.5H379.82V118.326Z" fill="#4F46E5" fill-opacity="0.2"/>
<path d="M410.042 133.866H379.82V166.5H410.042V133.866Z" fill="#4F46E5" fill-opacity="0.2"/>
<path d="M441 149.794H410.041V166.5H441V149.794Z" fill="#4F46E5" fill-opacity="0.2"/>
<path d="M257.458 102.397H226.5V166.5H257.458V102.397Z" fill="#4F46E5"/>
<path d="M287.68 111.555H257.459V166.5H287.68V111.555Z" fill="#4F46E5"/>
<path d="M318.64 120.489H287.681V166.5H318.64V120.489Z" fill="#4F46E5"/>
<path d="M348.86 129.646H318.639V166.5H348.86V129.646Z" fill="#4F46E5"/>
<path d="M379.82 138.804H348.861V166.5H379.82V138.804Z" fill="#4F46E5"/>
<path d="M410.042 147.738H379.82V166.5H410.042V147.738Z" fill="#4F46E5"/>
<path d="M441 156.896H410.041V166.5H441V156.896Z" fill="#4F46E5"/>
<path d="M195.542 278H226.5V166.5H195.542V278Z" fill="#4F46E5" fill-opacity="0.2"/>
<path d="M165.32 262.071H195.541V166.5H165.32V262.071Z" fill="#4F46E5" fill-opacity="0.2"/>
<path d="M134.36 246.531H165.319V166.5H134.36V246.531Z" fill="#4F46E5" fill-opacity="0.2"/>
<path d="M104.14 230.603H134.361V166.5H104.14V230.603Z" fill="#4F46E5" fill-opacity="0.2"/>
<path d="M73.1802 214.674H104.139V166.5H73.1802V214.674Z" fill="#4F46E5" fill-opacity="0.2"/>
<path d="M42.9585 199.134H73.1801V166.5H42.9585V199.134Z" fill="#4F46E5" fill-opacity="0.2"/>
<path d="M12 183.206H42.9588V166.5H12V183.206Z" fill="#4F46E5" fill-opacity="0.2"/>
<path d="M195.542 230.603H226.5V166.5H195.542V230.603Z" fill="#4F46E5"/>
<path d="M165.32 221.445H195.541V166.5H165.32V221.445Z" fill="#4F46E5"/>
<path d="M134.36 212.511H165.319V166.5H134.36V212.511Z" fill="#4F46E5"/>
<path d="M104.14 203.354H134.361V166.5H104.14V203.354Z" fill="#4F46E5"/>
<path d="M73.1802 194.196H104.139V166.5H73.1802V194.196Z" fill="#4F46E5"/>
<path d="M42.9585 185.262H73.1801V166.5H42.9585V185.262Z" fill="#4F46E5"/>
<path d="M12 176.104H42.9588V166.5H12V176.104Z" fill="#4F46E5"/>
<path d="M257.458 278H226.5V166.5H257.458V278Z" fill="#4F46E5" fill-opacity="0.2"/>
<path d="M287.68 262.071H257.459V166.5H287.68V262.071Z" fill="#4F46E5" fill-opacity="0.2"/>
<path d="M318.64 246.531H287.681V166.5H318.64V246.531Z" fill="#4F46E5" fill-opacity="0.2"/>
<path d="M348.86 230.603H318.639V166.5H348.86V230.603Z" fill="#4F46E5" fill-opacity="0.2"/>
<path d="M379.82 214.674H348.861V166.5H379.82V214.674Z" fill="#4F46E5" fill-opacity="0.2"/>
<path d="M410.042 199.134H379.82V166.5H410.042V199.134Z" fill="#4F46E5" fill-opacity="0.2"/>
<path d="M441 183.206H410.041V166.5H441V183.206Z" fill="#4F46E5" fill-opacity="0.2"/>
<path d="M257.458 230.603H226.5V166.5H257.458V230.603Z" fill="#4F46E5"/>
<path d="M287.68 221.445H257.459V166.5H287.68V221.445Z" fill="#4F46E5"/>
<path d="M318.64 212.511H287.681V166.5H318.64V212.511Z" fill="#4F46E5"/>
<path d="M348.86 203.354H318.639V166.5H348.86V203.354Z" fill="#4F46E5"/>
<path d="M379.82 194.196H348.861V166.5H379.82V194.196Z" fill="#4F46E5"/>
<path d="M410.042 185.262H379.82V166.5H410.042V185.262Z" fill="#4F46E5"/>
<path d="M441 176.104H410.041V166.5H441V176.104Z" fill="#4F46E5"/>
<path d="M5.18803 69.5455C5.14542 69.1856 4.9726 68.9062 4.66957 68.7074C4.36654 68.5085 3.99485 68.4091 3.55451 68.4091C3.23254 68.4091 2.95082 68.4612 2.70934 68.5653C2.47023 68.6695 2.2832 68.8127 2.14826 68.995C2.01568 69.1773 1.9494 69.3845 1.9494 69.6165C1.9494 69.8106 1.99556 69.9775 2.08789 70.1172C2.18259 70.2545 2.30333 70.3693 2.45011 70.4616C2.59689 70.5516 2.75077 70.6262 2.91175 70.6854C3.07274 70.7422 3.2207 70.7884 3.35565 70.8239L4.09428 71.0227C4.28368 71.0724 4.49438 71.1411 4.72638 71.2287C4.96076 71.3163 5.18448 71.4358 5.39755 71.5874C5.61299 71.7365 5.79054 71.9283 5.93022 72.1626C6.0699 72.397 6.13974 72.6847 6.13974 73.0256C6.13974 73.4186 6.03675 73.7737 5.83079 74.0909C5.62719 74.4081 5.32889 74.6603 4.9359 74.8473C4.54528 75.0343 4.07061 75.1278 3.5119 75.1278C2.99106 75.1278 2.54007 75.0438 2.15891 74.8757C1.78013 74.7076 1.48183 74.4732 1.26403 74.1726C1.04859 73.8719 0.926669 73.5227 0.89826 73.125H1.80735C1.83103 73.3996 1.92335 73.6269 2.08434 73.8068C2.24769 73.9844 2.45366 74.117 2.70224 74.2045C2.95318 74.2898 3.22307 74.3324 3.5119 74.3324C3.84807 74.3324 4.14992 74.2779 4.41744 74.169C4.68496 74.0578 4.89684 73.9039 5.05309 73.7074C5.20934 73.5085 5.28746 73.2765 5.28746 73.0114C5.28746 72.7699 5.21999 72.5734 5.08505 72.4219C4.95011 72.2704 4.77255 72.1473 4.55238 72.0526C4.33221 71.9579 4.09428 71.875 3.8386 71.804L2.94371 71.5483C2.37553 71.3849 1.92572 71.1518 1.59428 70.8487C1.26284 70.5457 1.09712 70.1491 1.09712 69.6591C1.09712 69.2519 1.20721 68.8968 1.42738 68.5938C1.64992 68.2884 1.94821 68.0516 2.32227 67.8835C2.69869 67.7131 3.1189 67.6278 3.58292 67.6278C4.05167 67.6278 4.46834 67.7119 4.83292 67.88C5.1975 68.0457 5.48633 68.273 5.6994 68.5618C5.91483 68.8506 6.02847 69.1785 6.04031 69.5455H5.18803ZM9.84624 69.5455V70.2557H7.01953V69.5455H9.84624ZM7.84339 68.2386H8.68146V73.4375C8.68146 73.6742 8.71579 73.8518 8.78445 73.9702C8.85547 74.0862 8.94543 74.1643 9.05433 74.2045C9.1656 74.2424 9.28279 74.2614 9.40589 74.2614C9.49822 74.2614 9.57398 74.2566 9.63317 74.2472C9.69235 74.2353 9.7397 74.2259 9.77521 74.2188L9.94567 74.9716C9.88885 74.9929 9.80954 75.0142 9.70774 75.0355C9.60594 75.0592 9.47692 75.071 9.32067 75.071C9.08393 75.071 8.85192 75.0201 8.62464 74.9183C8.39974 74.8165 8.21271 74.6615 8.06357 74.4531C7.91679 74.2448 7.84339 73.982 7.84339 73.6648V68.2386ZM12.712 75.1278C12.3664 75.1278 12.0527 75.0627 11.771 74.9325C11.4892 74.8 11.2655 74.6094 11.0998 74.3608C10.9341 74.1098 10.8512 73.8068 10.8512 73.4517C10.8512 73.1392 10.9128 72.8859 11.0359 72.6918C11.159 72.4953 11.3235 72.3414 11.5295 72.2301C11.7354 72.1188 11.9627 72.036 12.2113 71.9815C12.4622 71.9247 12.7144 71.8797 12.9677 71.8466C13.2991 71.804 13.5678 71.772 13.7738 71.7507C13.9821 71.727 14.1336 71.688 14.2283 71.6335C14.3254 71.5791 14.3739 71.4844 14.3739 71.3494V71.321C14.3739 70.9706 14.2781 70.6984 14.0863 70.5043C13.8969 70.3101 13.6093 70.2131 13.2234 70.2131C12.8233 70.2131 12.5096 70.3007 12.2823 70.4759C12.055 70.651 11.8952 70.8381 11.8029 71.0369L11.0075 70.7528C11.1495 70.4214 11.3389 70.1634 11.5756 69.9787C11.8147 69.7917 12.0752 69.6615 12.3569 69.5881C12.641 69.5123 12.9203 69.4744 13.195 69.4744C13.3701 69.4744 13.5714 69.4957 13.7987 69.5384C14.0283 69.5786 14.2496 69.6626 14.4627 69.7905C14.6781 69.9183 14.8569 70.1113 14.9989 70.3693C15.141 70.6274 15.212 70.973 15.212 71.4062V75H14.3739V74.2614H14.3313C14.2745 74.3797 14.1798 74.5064 14.0472 74.6413C13.9147 74.7763 13.7383 74.8911 13.5181 74.9858C13.2979 75.0805 13.0292 75.1278 12.712 75.1278ZM12.8398 74.375C13.1713 74.375 13.4506 74.3099 13.6779 74.1797C13.9076 74.0495 14.0804 73.8814 14.1964 73.6754C14.3147 73.4695 14.3739 73.2528 14.3739 73.0256V72.2585C14.3384 72.3011 14.2603 72.3402 14.1396 72.3757C14.0212 72.4089 13.8839 72.4384 13.7276 72.4645C13.5737 72.4882 13.4234 72.5095 13.2766 72.5284C13.1322 72.545 13.015 72.5592 12.9251 72.571C12.7073 72.5994 12.5037 72.6456 12.3143 72.7095C12.1272 72.7711 11.9757 72.8646 11.8597 72.9901C11.7461 73.1132 11.6893 73.2812 11.6893 73.4943C11.6893 73.7855 11.797 74.0057 12.0124 74.1548C12.2302 74.3016 12.506 74.375 12.8398 74.375ZM16.7417 75V69.5455H17.5513V70.3693H17.6081C17.7076 70.0994 17.8875 69.8804 18.1479 69.7124C18.4083 69.5443 18.7019 69.4602 19.0286 69.4602C19.0901 69.4602 19.1671 69.4614 19.2594 69.4638C19.3517 69.4661 19.4216 69.4697 19.4689 69.4744V70.3267C19.4405 70.3196 19.3754 70.3089 19.2736 70.2947C19.1742 70.2782 19.0688 70.2699 18.9576 70.2699C18.6924 70.2699 18.4557 70.3255 18.2473 70.4368C18.0414 70.5457 17.878 70.6972 17.7573 70.8913C17.6389 71.0831 17.5797 71.3021 17.5797 71.5483V75H16.7417ZM23.1763 69.5455V70.2557H20.3496V69.5455H23.1763ZM21.1735 68.2386H22.0115V73.4375C22.0115 73.6742 22.0459 73.8518 22.1145 73.9702C22.1855 74.0862 22.2755 74.1643 22.3844 74.2045C22.4957 74.2424 22.6129 74.2614 22.736 74.2614C22.8283 74.2614 22.9041 74.2566 22.9632 74.2472C23.0224 74.2353 23.0698 74.2259 23.1053 74.2188L23.2757 74.9716C23.2189 74.9929 23.1396 75.0142 23.0378 75.0355C22.936 75.0592 22.807 75.071 22.6507 75.071C22.414 75.071 22.182 75.0201 21.9547 74.9183C21.7298 74.8165 21.5428 74.6615 21.3936 74.4531C21.2469 74.2448 21.1735 73.982 21.1735 73.6648V68.2386Z" fill="#555555"/>
<line x1="440.994" y1="259.003" x2="440.994" y2="181.997" stroke="#1F1F1F"/>
<path d="M433.362 272V264.727H437.751V265.509H434.243V267.966H437.524V268.747H434.243V271.219H437.808V272H433.362ZM440.063 268.719V272H439.225V266.545H440.035V267.398H440.106C440.234 267.121 440.428 266.898 440.688 266.73C440.949 266.56 441.285 266.474 441.697 266.474C442.066 266.474 442.389 266.55 442.666 266.702C442.943 266.851 443.159 267.078 443.312 267.384C443.466 267.687 443.543 268.07 443.543 268.534V272H442.705V268.591C442.705 268.162 442.594 267.829 442.371 267.589C442.149 267.348 441.843 267.227 441.455 267.227C441.188 267.227 440.949 267.285 440.738 267.401C440.53 267.517 440.365 267.687 440.244 267.909C440.123 268.132 440.063 268.402 440.063 268.719ZM447.134 272.114C446.68 272.114 446.278 271.999 445.93 271.769C445.582 271.537 445.31 271.21 445.114 270.789C444.917 270.365 444.819 269.865 444.819 269.287C444.819 268.714 444.917 268.217 445.114 267.795C445.31 267.374 445.584 267.049 445.934 266.819C446.284 266.589 446.689 266.474 447.149 266.474C447.504 266.474 447.784 266.534 447.99 266.652C448.198 266.768 448.357 266.901 448.466 267.05C448.577 267.196 448.664 267.317 448.725 267.412H448.796V264.727H449.634V272H448.825V271.162H448.725C448.664 271.261 448.576 271.387 448.462 271.538C448.349 271.687 448.187 271.821 447.976 271.94C447.765 272.056 447.485 272.114 447.134 272.114ZM447.248 271.361C447.584 271.361 447.868 271.273 448.1 271.098C448.332 270.92 448.509 270.675 448.629 270.363C448.75 270.048 448.81 269.685 448.81 269.273C448.81 268.866 448.751 268.509 448.633 268.204C448.515 267.896 448.339 267.657 448.107 267.487C447.875 267.314 447.589 267.227 447.248 267.227C446.893 267.227 446.597 267.318 446.36 267.501C446.126 267.681 445.949 267.926 445.831 268.236C445.715 268.544 445.657 268.889 445.657 269.273C445.657 269.661 445.716 270.014 445.835 270.331C445.955 270.646 446.133 270.897 446.367 271.084C446.604 271.268 446.898 271.361 447.248 271.361Z" fill="#555555"/>
<path d="M177.75 43C177.75 36.2345 183.235 30.75 190 30.75H267C273.765 30.75 279.25 36.2345 279.25 43V296.25H177.75V43Z" stroke="#BF0000" stroke-width="1.5"/>
<path d="M177.5 297.5H279.5V322C279.5 326.142 276.142 329.5 272 329.5H185C180.858 329.5 177.5 326.142 177.5 322V297.5Z" fill="#BF0000" stroke="#BF0000"/>
<mask id="path-62-outside-1_154_139" maskUnits="userSpaceOnUse" x="205" y="3" width="48" height="18" fill="black">
<rect fill="white" x="205" y="3" width="48" height="18"/>
<path d="M206.078 19V4.45455H210.993C212.134 4.45455 213.066 4.66051 213.791 5.07244C214.52 5.47964 215.06 6.03125 215.41 6.72727C215.761 7.4233 215.936 8.19981 215.936 9.05682C215.936 9.91383 215.761 10.6927 215.41 11.3935C215.065 12.0942 214.529 12.6529 213.805 13.0696C213.081 13.4815 212.153 13.6875 211.021 13.6875H207.498V12.125H210.964C211.745 12.125 212.373 11.9901 212.846 11.7202C213.32 11.4503 213.663 11.0857 213.876 10.6264C214.094 10.1624 214.203 9.6392 214.203 9.05682C214.203 8.47443 214.094 7.9536 213.876 7.49432C213.663 7.03504 213.317 6.67519 212.839 6.41477C212.361 6.14962 211.726 6.01705 210.936 6.01705H207.839V19H206.078ZM223.002 19.2273C221.951 19.2273 221.045 18.9953 220.282 18.5312C219.525 18.0625 218.94 17.4091 218.528 16.571C218.121 15.7282 217.917 14.7481 217.917 13.6307C217.917 12.5133 218.121 11.5284 218.528 10.6761C218.94 9.81913 219.513 9.15152 220.247 8.6733C220.985 8.19034 221.847 7.94886 222.832 7.94886C223.4 7.94886 223.961 8.04356 224.515 8.23295C225.069 8.42235 225.574 8.73011 226.028 9.15625C226.483 9.57765 226.845 10.1364 227.115 10.8324C227.385 11.5284 227.52 12.3854 227.52 13.4034V14.1136H219.11V12.6648H225.815C225.815 12.0492 225.692 11.5 225.446 11.017C225.204 10.5341 224.859 10.1529 224.409 9.87358C223.964 9.59422 223.438 9.45455 222.832 9.45455C222.164 9.45455 221.587 9.62026 221.099 9.9517C220.616 10.2784 220.244 10.7045 219.984 11.2301C219.724 11.7557 219.593 12.3191 219.593 12.9205V13.8864C219.593 14.7102 219.735 15.4086 220.02 15.9815C220.308 16.5497 220.708 16.983 221.22 17.2812C221.731 17.5748 222.325 17.7216 223.002 17.7216C223.443 17.7216 223.841 17.66 224.196 17.5369C224.556 17.4091 224.866 17.2197 225.126 16.9688C225.386 16.7131 225.588 16.3958 225.73 16.017L227.349 16.4716C227.179 17.0208 226.892 17.5038 226.49 17.9205C226.087 18.3324 225.59 18.6544 224.998 18.8864C224.406 19.1136 223.741 19.2273 223.002 19.2273ZM233.279 19.2557C232.588 19.2557 231.961 19.1255 231.397 18.8651C230.834 18.5999 230.386 18.2188 230.055 17.7216C229.724 17.2197 229.558 16.6136 229.558 15.9034C229.558 15.2784 229.681 14.7718 229.927 14.3835C230.173 13.9905 230.502 13.6828 230.914 13.4602C231.326 13.2377 231.781 13.072 232.278 12.9631C232.78 12.8494 233.284 12.7595 233.791 12.6932C234.454 12.608 234.991 12.544 235.403 12.5014C235.82 12.4541 236.123 12.3759 236.312 12.267C236.506 12.1581 236.603 11.9687 236.603 11.6989V11.642C236.603 10.9413 236.412 10.3968 236.028 10.0085C235.649 9.62027 235.074 9.42614 234.302 9.42614C233.502 9.42614 232.875 9.60133 232.42 9.9517C231.966 10.3021 231.646 10.6761 231.461 11.0739L229.87 10.5057C230.154 9.8428 230.533 9.3267 231.007 8.95739C231.485 8.58333 232.006 8.32292 232.569 8.17614C233.137 8.02462 233.696 7.94886 234.245 7.94886C234.596 7.94886 234.998 7.99148 235.453 8.0767C235.912 8.1572 236.355 8.32528 236.781 8.58097C237.212 8.83665 237.569 9.22254 237.853 9.73864C238.137 10.2547 238.279 10.946 238.279 11.8125V19H236.603V17.5227H236.518C236.404 17.7595 236.215 18.0128 235.95 18.2827C235.685 18.5526 235.332 18.7822 234.892 18.9716C234.451 19.161 233.914 19.2557 233.279 19.2557ZM233.535 17.75C234.198 17.75 234.757 17.6198 235.211 17.3594C235.671 17.099 236.016 16.7628 236.248 16.3509C236.485 15.9389 236.603 15.5057 236.603 15.0511V13.517C236.532 13.6023 236.376 13.6804 236.135 13.7514C235.898 13.8177 235.623 13.8769 235.311 13.929C235.003 13.9763 234.702 14.0189 234.409 14.0568C234.12 14.09 233.886 14.1184 233.706 14.142C233.27 14.1989 232.863 14.2912 232.484 14.419C232.11 14.5421 231.807 14.7292 231.575 14.9801C231.348 15.2263 231.234 15.5625 231.234 15.9886C231.234 16.571 231.449 17.0114 231.88 17.3097C232.316 17.6032 232.868 17.75 233.535 17.75ZM242.901 15.0227L242.873 12.9489H243.214L247.987 8.09091H250.06L244.975 13.233H244.833L242.901 15.0227ZM241.339 19V4.45455H243.015V19H241.339ZM248.271 19L244.009 13.6023L245.202 12.4375L250.401 19H248.271Z"/>
</mask>
<path d="M206.078 19V4.45455H210.993C212.134 4.45455 213.066 4.66051 213.791 5.07244C214.52 5.47964 215.06 6.03125 215.41 6.72727C215.761 7.4233 215.936 8.19981 215.936 9.05682C215.936 9.91383 215.761 10.6927 215.41 11.3935C215.065 12.0942 214.529 12.6529 213.805 13.0696C213.081 13.4815 212.153 13.6875 211.021 13.6875H207.498V12.125H210.964C211.745 12.125 212.373 11.9901 212.846 11.7202C213.32 11.4503 213.663 11.0857 213.876 10.6264C214.094 10.1624 214.203 9.6392 214.203 9.05682C214.203 8.47443 214.094 7.9536 213.876 7.49432C213.663 7.03504 213.317 6.67519 212.839 6.41477C212.361 6.14962 211.726 6.01705 210.936 6.01705H207.839V19H206.078ZM223.002 19.2273C221.951 19.2273 221.045 18.9953 220.282 18.5312C219.525 18.0625 218.94 17.4091 218.528 16.571C218.121 15.7282 217.917 14.7481 217.917 13.6307C217.917 12.5133 218.121 11.5284 218.528 10.6761C218.94 9.81913 219.513 9.15152 220.247 8.6733C220.985 8.19034 221.847 7.94886 222.832 7.94886C223.4 7.94886 223.961 8.04356 224.515 8.23295C225.069 8.42235 225.574 8.73011 226.028 9.15625C226.483 9.57765 226.845 10.1364 227.115 10.8324C227.385 11.5284 227.52 12.3854 227.52 13.4034V14.1136H219.11V12.6648H225.815C225.815 12.0492 225.692 11.5 225.446 11.017C225.204 10.5341 224.859 10.1529 224.409 9.87358C223.964 9.59422 223.438 9.45455 222.832 9.45455C222.164 9.45455 221.587 9.62026 221.099 9.9517C220.616 10.2784 220.244 10.7045 219.984 11.2301C219.724 11.7557 219.593 12.3191 219.593 12.9205V13.8864C219.593 14.7102 219.735 15.4086 220.02 15.9815C220.308 16.5497 220.708 16.983 221.22 17.2812C221.731 17.5748 222.325 17.7216 223.002 17.7216C223.443 17.7216 223.841 17.66 224.196 17.5369C224.556 17.4091 224.866 17.2197 225.126 16.9688C225.386 16.7131 225.588 16.3958 225.73 16.017L227.349 16.4716C227.179 17.0208 226.892 17.5038 226.49 17.9205C226.087 18.3324 225.59 18.6544 224.998 18.8864C224.406 19.1136 223.741 19.2273 223.002 19.2273ZM233.279 19.2557C232.588 19.2557 231.961 19.1255 231.397 18.8651C230.834 18.5999 230.386 18.2188 230.055 17.7216C229.724 17.2197 229.558 16.6136 229.558 15.9034C229.558 15.2784 229.681 14.7718 229.927 14.3835C230.173 13.9905 230.502 13.6828 230.914 13.4602C231.326 13.2377 231.781 13.072 232.278 12.9631C232.78 12.8494 233.284 12.7595 233.791 12.6932C234.454 12.608 234.991 12.544 235.403 12.5014C235.82 12.4541 236.123 12.3759 236.312 12.267C236.506 12.1581 236.603 11.9687 236.603 11.6989V11.642C236.603 10.9413 236.412 10.3968 236.028 10.0085C235.649 9.62027 235.074 9.42614 234.302 9.42614C233.502 9.42614 232.875 9.60133 232.42 9.9517C231.966 10.3021 231.646 10.6761 231.461 11.0739L229.87 10.5057C230.154 9.8428 230.533 9.3267 231.007 8.95739C231.485 8.58333 232.006 8.32292 232.569 8.17614C233.137 8.02462 233.696 7.94886 234.245 7.94886C234.596 7.94886 234.998 7.99148 235.453 8.0767C235.912 8.1572 236.355 8.32528 236.781 8.58097C237.212 8.83665 237.569 9.22254 237.853 9.73864C238.137 10.2547 238.279 10.946 238.279 11.8125V19H236.603V17.5227H236.518C236.404 17.7595 236.215 18.0128 235.95 18.2827C235.685 18.5526 235.332 18.7822 234.892 18.9716C234.451 19.161 233.914 19.2557 233.279 19.2557ZM233.535 17.75C234.198 17.75 234.757 17.6198 235.211 17.3594C235.671 17.099 236.016 16.7628 236.248 16.3509C236.485 15.9389 236.603 15.5057 236.603 15.0511V13.517C236.532 13.6023 236.376 13.6804 236.135 13.7514C235.898 13.8177 235.623 13.8769 235.311 13.929C235.003 13.9763 234.702 14.0189 234.409 14.0568C234.12 14.09 233.886 14.1184 233.706 14.142C233.27 14.1989 232.863 14.2912 232.484 14.419C232.11 14.5421 231.807 14.7292 231.575 14.9801C231.348 15.2263 231.234 15.5625 231.234 15.9886C231.234 16.571 231.449 17.0114 231.88 17.3097C232.316 17.6032 232.868 17.75 233.535 17.75ZM242.901 15.0227L242.873 12.9489H243.214L247.987 8.09091H250.06L244.975 13.233H244.833L242.901 15.0227ZM241.339 19V4.45455H243.015V19H241.339ZM248.271 19L244.009 13.6023L245.202 12.4375L250.401 19H248.271Z" fill="#BF0000"/>
<path d="M206.078 19H205.078V20H206.078V19ZM206.078 4.45455V3.45455H205.078V4.45455H206.078ZM213.791 5.07244L213.297 5.94176L213.303 5.94553L213.791 5.07244ZM215.41 6.72727L214.517 7.17691V7.17692L215.41 6.72727ZM215.41 11.3935L214.516 10.9462L214.513 10.9511L215.41 11.3935ZM213.805 13.0696L214.299 13.9389L214.304 13.9364L213.805 13.0696ZM207.498 13.6875H206.498V14.6875H207.498V13.6875ZM207.498 12.125V11.125H206.498V12.125H207.498ZM212.846 11.7202L212.351 10.8514L212.846 11.7202ZM213.876 10.6264L212.971 10.2015L212.969 10.2056L213.876 10.6264ZM213.876 7.49432L212.969 7.91517L212.973 7.9228L213.876 7.49432ZM212.839 6.41477L212.354 7.28936L212.361 7.293L212.839 6.41477ZM207.839 6.01705V5.01705H206.839V6.01705H207.839ZM207.839 19V20H208.839V19H207.839ZM207.078 19V4.45455H205.078V19H207.078ZM206.078 5.45455H210.993V3.45455H206.078V5.45455ZM210.993 5.45455C212.022 5.45455 212.768 5.64136 213.297 5.94173L214.285 4.20315C213.365 3.67967 212.246 3.45455 210.993 3.45455V5.45455ZM213.303 5.94553C213.871 6.26263 214.263 6.67241 214.517 7.17691L216.303 6.27763C215.857 5.39009 215.169 4.69665 214.278 4.19936L213.303 5.94553ZM214.517 7.17692C214.79 7.71996 214.936 8.34014 214.936 9.05682H216.936C216.936 8.05948 216.731 7.12663 216.303 6.27763L214.517 7.17692ZM214.936 9.05682C214.936 9.7734 214.79 10.397 214.516 10.9463L216.305 11.8407C216.731 10.9884 216.936 10.0542 216.936 9.05682H214.936ZM214.513 10.9511C214.262 11.4614 213.872 11.8777 213.306 12.2028L214.304 13.9364C215.187 13.4281 215.867 12.727 216.307 11.8358L214.513 10.9511ZM213.311 12.2003C212.781 12.5013 212.039 12.6875 211.021 12.6875V14.6875C212.266 14.6875 213.38 14.4618 214.299 13.9389L213.311 12.2003ZM211.021 12.6875H207.498V14.6875H211.021V12.6875ZM208.498 13.6875V12.125H206.498V13.6875H208.498ZM207.498 13.125H210.964V11.125H207.498V13.125ZM210.964 13.125C211.848 13.125 212.666 12.9742 213.341 12.5889L212.351 10.8514C212.08 11.0059 211.643 11.125 210.964 11.125V13.125ZM213.341 12.5889C213.981 12.2245 214.476 11.7097 214.783 11.0473L212.969 10.2056C212.85 10.4617 212.659 10.6761 212.351 10.8514L213.341 12.5889ZM214.781 11.0513C215.07 10.4373 215.203 9.76604 215.203 9.05682H213.203C213.203 9.51237 213.118 9.88747 212.971 10.2015L214.781 11.0513ZM215.203 9.05682C215.203 8.34782 215.07 7.67726 214.78 7.06583L212.973 7.9228C213.118 8.22993 213.203 8.60104 213.203 9.05682H215.203ZM214.783 7.07348C214.473 6.40468 213.969 5.89129 213.317 5.53654L212.361 7.293C212.666 7.45909 212.853 7.6654 212.969 7.91515L214.783 7.07348ZM213.324 5.54021C212.646 5.16419 211.825 5.01705 210.936 5.01705V7.01705C211.628 7.01705 212.076 7.13506 212.354 7.28934L213.324 5.54021ZM210.936 5.01705H207.839V7.01705H210.936V5.01705ZM206.839 6.01705V19H208.839V6.01705H206.839ZM207.839 18H206.078V20H207.839V18ZM220.282 18.5312L219.756 19.3817L219.762 19.3854L220.282 18.5312ZM218.528 16.571L217.628 17.0061L217.631 17.0121L218.528 16.571ZM218.528 10.6761L217.627 10.2429L217.626 10.245L218.528 10.6761ZM220.247 8.6733L220.793 9.51112L220.794 9.51026L220.247 8.6733ZM224.515 8.23295L224.839 7.28672H224.839L224.515 8.23295ZM226.028 9.15625L225.344 9.8858L225.348 9.88959L226.028 9.15625ZM227.115 10.8324L228.047 10.4709L227.115 10.8324ZM227.52 14.1136V15.1136H228.52V14.1136H227.52ZM219.11 14.1136H218.11V15.1136H219.11V14.1136ZM219.11 12.6648V11.6648H218.11V12.6648H219.11ZM225.815 12.6648V13.6648H226.815V12.6648H225.815ZM225.446 11.017L224.551 11.4643L224.555 11.4712L225.446 11.017ZM224.409 9.87358L223.877 10.7206L223.881 10.7231L224.409 9.87358ZM221.099 9.9517L221.659 10.78L221.661 10.7788L221.099 9.9517ZM219.984 11.2301L219.088 10.7861V10.7861L219.984 11.2301ZM220.02 15.9815L219.124 16.4258L219.128 16.4347L220.02 15.9815ZM221.22 17.2812L220.716 18.1451L220.722 18.1485L221.22 17.2812ZM224.196 17.5369L224.523 18.4818L224.53 18.4792L224.196 17.5369ZM225.126 16.9688L225.82 17.6889L225.827 17.6823L225.126 16.9688ZM225.73 16.017L226 15.0543L225.116 14.8061L224.793 15.6659L225.73 16.017ZM227.349 16.4716L228.304 16.768L228.609 15.7865L227.619 15.5088L227.349 16.4716ZM226.49 17.9205L227.205 18.6193L227.209 18.6152L226.49 17.9205ZM224.998 18.8864L225.357 19.8199L225.363 19.8174L224.998 18.8864ZM223.002 18.2273C222.102 18.2273 221.382 18.0299 220.802 17.6771L219.762 19.3854C220.707 19.9606 221.801 20.2273 223.002 20.2273V18.2273ZM220.808 17.6809C220.219 17.3158 219.759 16.8079 219.426 16.1299L217.631 17.0121C218.121 18.0103 218.831 18.8092 219.756 19.3816L220.808 17.6809ZM219.428 16.136C219.098 15.4526 218.917 14.6263 218.917 13.6307H216.917C216.917 14.8699 217.143 16.0038 217.628 17.0061L219.428 16.136ZM218.917 13.6307C218.917 12.6354 219.098 11.8024 219.43 11.1072L217.626 10.245C217.144 11.2544 216.917 12.3911 216.917 13.6307H218.917ZM219.429 11.1094C219.769 10.4026 220.225 9.88101 220.793 9.51112L219.701 7.83547C218.801 8.42202 218.111 9.23568 217.627 10.2429L219.429 11.1094ZM220.794 9.51026C221.352 9.14577 222.018 8.94886 222.832 8.94886V6.94886C221.676 6.94886 220.619 7.23491 219.7 7.83633L220.794 9.51026ZM222.832 8.94886C223.287 8.94886 223.739 9.0243 224.192 9.17918L224.839 7.28672C224.184 7.06282 223.514 6.94886 222.832 6.94886V8.94886ZM224.192 9.17918C224.603 9.31981 224.986 9.55028 225.344 9.88579L226.712 8.42671C226.161 7.90995 225.535 7.52489 224.839 7.28672L224.192 9.17918ZM225.348 9.88959C225.671 10.1889 225.956 10.6108 226.182 11.1939L228.047 10.4709C227.733 9.66188 227.294 8.96645 226.708 8.42291L225.348 9.88959ZM226.182 11.1939C226.394 11.7411 226.52 12.467 226.52 13.4034H228.52C228.52 12.3038 228.375 11.3158 228.047 10.4709L226.182 11.1939ZM226.52 13.4034V14.1136H228.52V13.4034H226.52ZM227.52 13.1136H219.11V15.1136H227.52V13.1136ZM220.11 14.1136V12.6648H218.11V14.1136H220.11ZM219.11 13.6648H225.815V11.6648H219.11V13.6648ZM226.815 12.6648C226.815 11.9129 226.664 11.2045 226.337 10.5629L224.555 11.4712C224.72 11.7955 224.815 12.1856 224.815 12.6648H226.815ZM226.34 10.5698C226.018 9.92488 225.547 9.40303 224.936 9.02408L223.881 10.7231C224.171 10.9028 224.391 11.1433 224.551 11.4643L226.34 10.5698ZM224.94 9.0266C224.313 8.63268 223.597 8.45455 222.832 8.45455V10.4545C223.279 10.4545 223.615 10.5558 223.877 10.7206L224.94 9.0266ZM222.832 8.45455C221.991 8.45455 221.212 8.66602 220.537 9.12463L221.661 10.7788C221.962 10.5745 222.337 10.4545 222.832 10.4545V8.45455ZM220.539 9.12342C219.912 9.54764 219.425 10.1066 219.088 10.7861L220.88 11.6741C221.064 11.3025 221.321 11.0092 221.659 10.78L220.539 9.12342ZM219.088 10.7861C218.757 11.4533 218.593 12.1691 218.593 12.9205H220.593C220.593 12.4691 220.69 12.0581 220.88 11.6741L219.088 10.7861ZM218.593 12.9205V13.8864H220.593V12.9205H218.593ZM218.593 13.8864C218.593 14.8214 218.754 15.6809 219.124 16.4258L220.915 15.5373C220.717 15.1364 220.593 14.5991 220.593 13.8864H218.593ZM219.128 16.4347C219.497 17.1604 220.026 17.7425 220.716 18.145L221.724 16.4175C221.391 16.2234 221.12 15.939 220.911 15.5284L219.128 16.4347ZM220.722 18.1485C221.406 18.5413 222.177 18.7216 223.002 18.7216V16.7216C222.474 16.7216 222.056 16.6084 221.718 16.414L220.722 18.1485ZM223.002 18.7216C223.536 18.7216 224.046 18.6471 224.523 18.4818L223.868 16.5921C223.635 16.673 223.35 16.7216 223.002 16.7216V18.7216ZM224.53 18.4792C225.017 18.3064 225.451 18.0441 225.82 17.6888L224.432 16.2487C224.28 16.3953 224.094 16.5117 223.861 16.5946L224.53 18.4792ZM225.827 17.6823C226.202 17.3138 226.478 16.8686 226.666 16.3682L224.793 15.6659C224.697 15.9231 224.571 16.1123 224.425 16.2552L225.827 17.6823ZM225.46 16.9798L227.079 17.4344L227.619 15.5088L226 15.0543L225.46 16.9798ZM226.394 16.1752C226.27 16.5739 226.065 16.9207 225.77 17.2257L227.209 18.6152C227.719 18.0869 228.087 17.4678 228.304 16.768L226.394 16.1752ZM225.774 17.2216C225.481 17.5221 225.107 17.7696 224.633 17.9553L225.363 19.8174C226.073 19.5391 226.694 19.1427 227.205 18.6193L225.774 17.2216ZM224.64 17.9528C224.18 18.1296 223.638 18.2273 223.002 18.2273V20.2273C223.844 20.2273 224.633 20.0977 225.357 19.8199L224.64 17.9528ZM231.397 18.8651L230.972 19.7699L230.978 19.7728L231.397 18.8651ZM230.055 17.7216L229.221 18.2727L229.223 18.2763L230.055 17.7216ZM229.927 14.3835L230.772 14.9191L230.775 14.9144L229.927 14.3835ZM232.278 12.9631L232.492 13.9399L232.499 13.9384L232.278 12.9631ZM233.791 12.6932L233.663 11.7013L233.661 11.7016L233.791 12.6932ZM235.403 12.5014L235.506 13.4962L235.516 13.495L235.403 12.5014ZM236.312 12.267L235.823 11.3949L235.814 11.4001L236.312 12.267ZM236.028 10.0085L235.312 10.7069L235.317 10.7113L236.028 10.0085ZM232.42 9.9517L233.031 10.7437L232.42 9.9517ZM231.461 11.0739L231.125 12.0156L231.984 12.3224L232.368 11.495L231.461 11.0739ZM229.87 10.5057L228.951 10.1118L228.532 11.0896L229.534 11.4474L229.87 10.5057ZM231.007 8.95739L231.622 9.74589L231.623 9.74506L231.007 8.95739ZM232.569 8.17614L232.821 9.14386L232.827 9.14237L232.569 8.17614ZM235.453 8.0767L235.268 9.05965L235.28 9.06169L235.453 8.0767ZM236.781 8.58097L236.266 9.43847L236.271 9.44095L236.781 8.58097ZM237.853 9.73864L236.977 10.2209V10.2209L237.853 9.73864ZM238.279 19V20H239.279V19H238.279ZM236.603 19H235.603V20H236.603V19ZM236.603 17.5227H237.603V16.5227H236.603V17.5227ZM236.518 17.5227V16.5227H235.889L235.617 17.09L236.518 17.5227ZM235.95 18.2827L236.663 18.9835L235.95 18.2827ZM234.892 18.9716L234.497 18.053L234.892 18.9716ZM235.211 17.3594L234.718 16.4895L234.714 16.4917L235.211 17.3594ZM236.248 16.3509L235.381 15.8525L235.377 15.8601L236.248 16.3509ZM236.603 13.517H237.603V10.755L235.835 12.8769L236.603 13.517ZM236.135 13.7514L236.404 14.7145L236.417 14.7108L236.135 13.7514ZM235.311 13.929L235.463 14.9174L235.475 14.9154L235.311 13.929ZM234.409 14.0568L234.523 15.0504L234.537 15.0486L234.409 14.0568ZM233.706 14.142L233.835 15.1336L233.836 15.1335L233.706 14.142ZM232.484 14.419L232.797 15.3689L232.804 15.3665L232.484 14.419ZM231.575 14.9801L230.841 14.3013L230.84 14.3018L231.575 14.9801ZM231.88 17.3097L231.311 18.1319L231.321 18.1389L231.88 17.3097ZM233.279 18.2557C232.716 18.2557 232.235 18.1504 231.817 17.9573L230.978 19.7728C231.687 20.1006 232.46 20.2557 233.279 20.2557V18.2557ZM231.823 17.9602C231.417 17.7692 231.113 17.506 230.887 17.1669L229.223 18.2763C229.66 18.9315 230.251 19.4306 230.972 19.7699L231.823 17.9602ZM230.89 17.1705C230.684 16.8599 230.558 16.4538 230.558 15.9034H228.558C228.558 16.7735 228.763 17.5795 229.221 18.2727L230.89 17.1705ZM230.558 15.9034C230.558 15.402 230.657 15.0993 230.772 14.9191L229.083 13.848C228.705 14.4443 228.558 15.1548 228.558 15.9034H230.558ZM230.775 14.9144C230.928 14.6694 231.128 14.4812 231.39 14.34L230.439 12.5804C229.877 12.8843 229.419 13.3116 229.08 13.8526L230.775 14.9144ZM231.39 14.34C231.713 14.1656 232.078 14.0306 232.492 13.9399L232.064 11.9862C231.484 12.1134 230.94 12.3098 230.439 12.5804L231.39 14.34ZM232.499 13.9384C232.971 13.8315 233.445 13.747 233.921 13.6847L233.661 11.7016C233.124 11.772 232.589 11.8674 232.057 11.9878L232.499 13.9384ZM233.918 13.685C234.577 13.6003 235.106 13.5375 235.506 13.4961L235.3 11.5067C234.877 11.5505 234.33 11.6156 233.663 11.7013L233.918 13.685ZM235.516 13.495C235.966 13.4438 236.438 13.3482 236.811 13.134L235.814 11.4001C235.823 11.395 235.792 11.4136 235.693 11.439C235.599 11.4633 235.467 11.4877 235.29 11.5078L235.516 13.495ZM236.801 13.1392C237.383 12.8129 237.603 12.2395 237.603 11.6989H235.603C235.603 11.7166 235.6 11.6664 235.641 11.5872C235.686 11.4986 235.757 11.432 235.823 11.3949L236.801 13.1392ZM237.603 11.6989V11.642H235.603V11.6989H237.603ZM237.603 11.642C237.603 10.7563 237.356 9.93024 236.739 9.30577L235.317 10.7113C235.467 10.8633 235.603 11.1263 235.603 11.642H237.603ZM236.744 9.3102C236.109 8.65969 235.228 8.42614 234.302 8.42614V10.4261C234.92 10.4261 235.189 10.5808 235.312 10.7068L236.744 9.3102ZM234.302 8.42614C233.367 8.42614 232.496 8.63026 231.81 9.15969L233.031 10.7437C233.253 10.5724 233.638 10.4261 234.302 10.4261V8.42614ZM231.81 9.15969C231.266 9.5789 230.824 10.0714 230.554 10.6528L232.368 11.495C232.468 11.2808 232.665 11.0253 233.031 10.7437L231.81 9.15969ZM231.798 10.1321L230.207 9.56394L229.534 11.4474L231.125 12.0156L231.798 10.1321ZM230.79 10.8996C231.02 10.3607 231.306 9.99246 231.622 9.74589L230.392 8.16888C229.761 8.66094 229.288 9.32488 228.951 10.1118L230.79 10.8996ZM231.623 9.74506C231.998 9.4516 232.396 9.25466 232.821 9.14384L232.317 7.20843C231.616 7.39117 230.972 7.71507 230.391 8.16972L231.623 9.74506ZM232.827 9.14237C233.317 9.01169 233.789 8.94886 234.245 8.94886V6.94886C233.603 6.94886 232.958 7.03755 232.312 7.2099L232.827 9.14237ZM234.245 8.94886C234.518 8.94886 234.857 8.98236 235.268 9.05958L235.637 7.09383C235.14 7.00059 234.674 6.94886 234.245 6.94886V8.94886ZM235.28 9.06169C235.611 9.11965 235.938 9.24169 236.266 9.43846L237.295 7.72347C236.771 7.40887 236.213 7.19474 235.625 7.09172L235.28 9.06169ZM236.271 9.44095C236.523 9.59069 236.764 9.83332 236.977 10.2209L238.729 9.25641C238.375 8.61175 237.901 8.0826 237.291 7.72098L236.271 9.44095ZM236.977 10.2209C237.151 10.5359 237.279 11.0409 237.279 11.8125H239.279C239.279 10.8512 239.124 9.97361 238.729 9.25641L236.977 10.2209ZM237.279 11.8125V19H239.279V11.8125H237.279ZM238.279 18H236.603V20H238.279V18ZM237.603 19V17.5227H235.603V19H237.603ZM236.603 16.5227H236.518V18.5227H236.603V16.5227ZM235.617 17.09C235.566 17.1944 235.456 17.3589 235.237 17.5819L236.663 18.9835C236.975 18.6667 237.242 18.3245 237.42 17.9555L235.617 17.09ZM235.237 17.5818C235.083 17.7381 234.848 17.9017 234.497 18.053L235.287 19.8902C235.816 19.6627 236.286 19.367 236.663 18.9835L235.237 17.5818ZM234.497 18.053C234.214 18.1743 233.82 18.2557 233.279 18.2557V20.2557C234.008 20.2557 234.688 20.1476 235.287 19.8902L234.497 18.053ZM233.535 18.75C234.327 18.75 235.067 18.5943 235.708 18.2271L234.714 16.4917C234.446 16.6453 234.069 16.75 233.535 16.75V18.75ZM235.705 18.2293C236.303 17.8899 236.788 17.4299 237.12 16.8416L235.377 15.8601C235.244 16.0957 235.038 16.308 234.718 16.4895L235.705 18.2293ZM237.115 16.8491C237.435 16.2927 237.603 15.6886 237.603 15.0511H235.603C235.603 15.3228 235.535 15.5851 235.381 15.8526L237.115 16.8491ZM237.603 15.0511V13.517H235.603V15.0511H237.603ZM235.835 12.8769C235.883 12.819 235.927 12.7843 235.95 12.7676C235.974 12.7505 235.988 12.7438 235.986 12.7451C235.984 12.7461 235.972 12.7516 235.949 12.7605C235.925 12.7692 235.894 12.7799 235.852 12.7921L236.417 14.7108C236.572 14.6652 236.731 14.6083 236.88 14.534C237.018 14.4648 237.212 14.3492 237.372 14.1572L235.835 12.8769ZM235.865 12.7885C235.671 12.8428 235.433 12.8948 235.146 12.9426L235.475 14.9154C235.814 14.859 236.125 14.7927 236.404 14.7144L235.865 12.7885ZM235.159 12.9406C234.859 12.9868 234.566 13.0283 234.281 13.065L234.537 15.0486C234.839 15.0096 235.147 14.9659 235.463 14.9173L235.159 12.9406ZM234.295 13.0633C234.003 13.0968 233.763 13.1259 233.575 13.1506L233.836 15.1335C234.008 15.1108 234.237 15.0831 234.523 15.0503L234.295 13.0633ZM233.576 13.1504C233.082 13.2149 232.611 13.3209 232.164 13.4715L232.804 15.3665C233.115 15.2615 233.458 15.1828 233.835 15.1336L233.576 13.1504ZM232.171 13.4692C231.661 13.6372 231.204 13.9078 230.841 14.3013L232.309 15.659C232.409 15.5506 232.559 15.4471 232.797 15.3689L232.171 13.4692ZM230.84 14.3018C230.4 14.779 230.234 15.382 230.234 15.9886H232.234C232.234 15.743 232.296 15.6737 232.31 15.6584L230.84 14.3018ZM230.234 15.9886C230.234 16.8565 230.577 17.6237 231.311 18.1319L232.45 16.4875C232.322 16.399 232.234 16.2855 232.234 15.9886H230.234ZM231.321 18.1389C231.962 18.5705 232.722 18.75 233.535 18.75V16.75C233.013 16.75 232.67 16.636 232.439 16.4804L231.321 18.1389ZM242.901 15.0227L241.901 15.0364L241.932 17.2838L243.581 15.7563L242.901 15.0227ZM242.873 12.9489V11.9489H241.859L241.873 12.9626L242.873 12.9489ZM243.214 12.9489V13.9489H243.633L243.927 13.6497L243.214 12.9489ZM247.987 8.09091V7.09091H247.567L247.273 7.39009L247.987 8.09091ZM250.06 8.09091L250.771 8.79408L252.456 7.09091H250.06V8.09091ZM244.975 13.233V14.233H245.393L245.686 13.9361L244.975 13.233ZM244.833 13.233V12.233H244.441L244.153 12.4994L244.833 13.233ZM241.339 19H240.339V20H241.339V19ZM241.339 4.45455V3.45455H240.339V4.45455H241.339ZM243.015 4.45455H244.015V3.45455H243.015V4.45455ZM243.015 19V20H244.015V19H243.015ZM248.271 19L247.486 19.6196L247.786 20H248.271V19ZM244.009 13.6023L243.311 12.8867L242.667 13.5154L243.224 14.2219L244.009 13.6023ZM245.202 12.4375L245.986 11.8165L245.298 10.9472L244.504 11.7219L245.202 12.4375ZM250.401 19V20H252.469L251.185 18.379L250.401 19ZM243.901 15.009L243.873 12.9352L241.873 12.9626L241.901 15.0364L243.901 15.009ZM242.873 13.9489H243.214V11.9489H242.873V13.9489ZM243.927 13.6497L248.7 8.79173L247.273 7.39009L242.5 12.248L243.927 13.6497ZM247.987 9.09091H250.06V7.09091H247.987V9.09091ZM249.349 7.38774L244.264 12.5298L245.686 13.9361L250.771 8.79408L249.349 7.38774ZM244.975 12.233H244.833V14.233H244.975V12.233ZM244.153 12.4994L242.222 14.2892L243.581 15.7563L245.513 13.9665L244.153 12.4994ZM242.339 19V4.45455H240.339V19H242.339ZM241.339 5.45455H243.015V3.45455H241.339V5.45455ZM242.015 4.45455V19H244.015V4.45455H242.015ZM243.015 18H241.339V20H243.015V18ZM249.055 18.3804L244.794 12.9826L243.224 14.2219L247.486 19.6196L249.055 18.3804ZM244.708 14.3178L245.901 13.1531L244.504 11.7219L243.311 12.8867L244.708 14.3178ZM244.419 13.0585L249.617 19.621L251.185 18.379L245.986 11.8165L244.419 13.0585ZM250.401 18H248.271V20H250.401V18Z" fill="#BF0000" mask="url(#path-62-outside-1_154_139)"/>
<path d="M224.326 322.422C224.176 322.584 223.997 322.661 223.789 322.651C223.58 322.643 223.401 322.557 223.251 322.395C223.118 322.251 223.043 322.071 223.026 321.854C223.009 321.638 223.059 321.449 223.176 321.287L228.026 313.989L219.926 313.151C219.493 313.115 219.205 312.872 219.063 312.421C218.922 311.971 219.018 311.592 219.351 311.286L229.726 301.231C229.876 301.069 230.055 300.992 230.264 301.001C230.472 301.01 230.651 301.096 230.801 301.258C230.934 301.402 231.009 301.582 231.026 301.799C231.043 302.015 230.993 302.204 230.876 302.366L226.026 309.664L234.126 310.502C234.559 310.538 234.847 310.781 234.988 311.232C235.13 311.682 235.034 312.061 234.701 312.367L224.326 322.422Z" fill="white"/>
<path d="M10 163.288C10 107.348 55.348 62 111.288 62H177V262H108.712C54.1951 262 10 217.805 10 163.288Z" fill="#101010" fill-opacity="0.5"/>
<path d="M447 168.288C447 112.348 401.652 67 345.712 67H280V267H348.288C402.805 267 447 222.805 447 168.288Z" fill="#101010" fill-opacity="0.5"/>
<line x1="11.9937" y1="157.003" x2="11.9937" y2="79.9969" stroke="#1F1F1F"/>
</svg>
