<svg width="1318" height="654" viewBox="0 0 1318 654" fill="none" xmlns="http://www.w3.org/2000/svg">
<path d="M45 529L169.727 374.66C201.33 335.553 256.058 324.029 300.747 347.071L446.428 422.183C477.736 438.325 515.017 437.861 545.913 420.944L772.069 297.112C814.077 274.11 866.34 282.568 898.951 317.644C935.161 356.593 994.827 362.184 1037.64 330.64L1198 212.5L1280 154V529C1280 539.493 1271.49 548 1261 548H64C53.5066 548 45 539.493 45 529Z" fill="#4F46E5" fill-opacity="0.2"/>
<path d="M45.2272 525.365C44.8765 525.791 44.938 526.422 45.3646 526.772C45.7912 527.123 46.4214 527.062 46.7721 526.635L45.2272 525.365ZM1036.36 331.982L1280.44 154.333L1279.26 152.716L1035.18 330.365L1036.36 331.982ZM897.345 316.971L899.549 319.304L901.003 317.931L898.799 315.597L897.345 316.971ZM545.099 422.836L774.247 297.515L773.288 295.761L544.14 421.081L545.099 422.836ZM46.7721 526.635L172.297 373.96L170.752 372.69L45.2272 525.365L46.7721 526.635ZM297.235 347.776L448.144 424.337L449.049 422.553L298.14 345.992L297.235 347.776ZM172.297 373.96C202.66 337.031 254.599 326.145 297.235 347.776L298.14 345.992C254.668 323.937 201.71 335.036 170.752 372.69L172.297 373.96ZM544.14 421.081C514.625 437.222 479.049 437.773 449.049 422.553L448.144 424.337C478.733 439.855 515.006 439.294 545.099 422.836L544.14 421.081ZM898.799 315.597C866.335 281.224 814.77 273.074 773.288 295.761L774.247 297.515C814.932 275.265 865.505 283.258 897.345 316.971L898.799 315.597ZM1035.18 330.365C993.695 360.56 936.235 355.236 901.003 317.931L899.549 319.304C935.472 357.34 994.058 362.769 1036.36 331.982L1035.18 330.365Z" fill="#4F46E5"/>
</svg>
