<svg width="36" height="33" viewBox="0 0 36 33" fill="none" xmlns="http://www.w3.org/2000/svg">
<rect width="36" height="33" rx="4" fill="#222222"/>
<path d="M24.1795 5H12.0681C8.72206 5 6 7.67871 6 10.9714V21.8752C6 25.1679 8.72206 27.8466 12.0681 27.8466H24.1795C27.5255 27.8466 30.2476 25.1679 30.2476 21.8752V10.9714C30.2476 7.67871 27.5255 5 24.1795 5ZM8.14062 10.9714C8.14062 8.8406 9.90276 7.10653 12.0681 7.10653H24.1795C26.3448 7.10653 28.1069 8.8406 28.1069 10.9714V21.8752C28.1069 24.006 26.3448 25.7401 24.1795 25.7401H12.0681C9.90276 25.7401 8.14062 24.006 8.14062 21.8752V10.9714Z" fill="white"/>
<path d="M18.1238 21.977C21.2353 21.977 23.7681 19.4859 23.7681 16.4226C23.7681 13.3593 21.2367 10.8682 18.1238 10.8682C15.0109 10.8682 12.4795 13.3593 12.4795 16.4226C12.4795 19.4859 15.0109 21.977 18.1238 21.977ZM18.1238 12.976C20.056 12.976 21.6275 14.5225 21.6275 16.424C21.6275 18.3254 20.056 19.8718 18.1238 19.8718C16.1916 19.8718 14.6201 18.3254 14.6201 16.424C14.6201 14.5225 16.1916 12.976 18.1238 12.976Z" fill="white"/>
<path d="M24.2908 11.7651C25.1287 11.7651 25.8116 11.0944 25.8116 10.2686C25.8116 9.44267 25.13 8.77197 24.2908 8.77197C23.4516 8.77197 22.77 9.44267 22.77 10.2686C22.77 11.0944 23.4516 11.7651 24.2908 11.7651Z" fill="white"/>
</svg>
