<svg width="1440"  viewBox="0 0 1440 8857" fill="none" xmlns="http://www.w3.org/2000/svg">
<g clip-path="url(#clip0_105_1020)">
<rect width="1440" height="8857" fill="#101010"/>
<line x1="49.5" y1="8764" x2="49.5" stroke="#262626"/>
<line x1="48.9893" y1="911.5" x2="141.011" y2="911.5" stroke="#262626"/>
<line x1="-4.00049" y1="2030.5" x2="1463" y2="2030.5" stroke="url(#paint0_linear_105_1020)"/>
<line x1="82.5" y1="2212" x2="82.5" y2="1844" stroke="url(#paint1_linear_105_1020)"/>
<line x1="294.5" y1="2212" x2="294.5" y2="1844" stroke="url(#paint2_linear_105_1020)"/>
<line x1="506.5" y1="2212" x2="506.5" y2="1844" stroke="url(#paint3_linear_105_1020)"/>
<line x1="718.5" y1="2212" x2="718.5" y2="1844" stroke="url(#paint4_linear_105_1020)"/>
<line x1="934.5" y1="2212" x2="934.5" y2="1844" stroke="url(#paint5_linear_105_1020)"/>
<line x1="1146.5" y1="2212" x2="1146.5" y2="1844" stroke="url(#paint6_linear_105_1020)"/>
<line x1="1357.5" y1="2212" x2="1357.5" y2="1844" stroke="url(#paint7_linear_105_1020)"/>
<line x1="1289" y1="910.5" x2="1381.02" y2="910.5" stroke="#262626"/>
<rect x="-109" y="1847" width="166" height="168" rx="17" fill="#222222" fill-opacity="0.2"/>
<rect x="-108.5" y="1847.5" width="165" height="167" rx="16.5" stroke="#383838" stroke-opacity="0.2"/>
<rect x="104.5" y="1847.5" width="165" height="167" rx="16.5" fill="#222222" stroke="#383838"/>
<rect x="317.5" y="1847.5" width="165" height="167" rx="16.5" fill="#222222" stroke="#383838"/>
<rect x="530.5" y="1847.5" width="165" height="167" rx="16.5" fill="#222222" stroke="#383838"/>
<rect x="743.5" y="1847.5" width="165" height="167" rx="16.5" fill="#222222" stroke="#383838"/>
<rect x="956.5" y="1847.5" width="165" height="167" rx="16.5" fill="#222222" stroke="#383838"/>
<rect x="1169" y="1847" width="166" height="168" rx="17" fill="#222222" fill-opacity="0.2"/>
<rect x="1169.5" y="1847.5" width="165" height="167" rx="16.5" stroke="#383838" stroke-opacity="0.2"/>
<rect x="1382.5" y="1847.5" width="165" height="167" rx="16.5" fill="#222222" stroke="#383838"/>
<rect x="-109" y="2044" width="166" height="168" rx="17" fill="#222222" fill-opacity="0.2"/>
<rect x="-108.5" y="2044.5" width="165" height="167" rx="16.5" stroke="#383838" stroke-opacity="0.2"/>
<rect x="104.5" y="2044.5" width="165" height="167" rx="16.5" fill="#222222" stroke="#383838"/>
<rect x="317" y="2044" width="166" height="168" rx="17" fill="#222222" fill-opacity="0.2"/>
<rect x="317.5" y="2044.5" width="165" height="167" rx="16.5" stroke="#383838" stroke-opacity="0.2"/>
<rect x="530.5" y="2044.5" width="165" height="167" rx="16.5" fill="#222222" stroke="#383838"/>
<rect x="743.5" y="2044.5" width="165" height="167" rx="16.5" fill="#222222" stroke="#383838"/>
<rect x="956" y="2044" width="166" height="168" rx="17" fill="#222222" fill-opacity="0.2"/>
<rect x="956.5" y="2044.5" width="165" height="167" rx="16.5" stroke="#383838" stroke-opacity="0.2"/>
<rect x="1169.5" y="2044.5" width="165" height="167" rx="16.5" fill="#222222" stroke="#383838"/>
<rect x="1382.5" y="2044.5" width="165" height="167" rx="16.5" fill="#222222" stroke="#383838"/>
<rect x="496" y="2020" width="20" height="20" fill="#101010"/>
<rect x="284" y="2020" width="20" height="20" fill="#101010"/>
<rect x="72" y="2020" width="20" height="20" fill="#101010"/>
<rect x="709" y="2020" width="20" height="20" fill="#101010"/>
<rect x="924" y="2020" width="20" height="20" fill="#101010"/>
<rect x="1137" y="2020" width="20" height="20" fill="#101010"/>
<rect x="1348" y="2020" width="20" height="20" fill="#101010"/>
<line x1="718.997" y1="2668" x2="718.997" y2="3268" stroke="url(#paint8_linear_105_1020)"/>
<line x1="-182" y1="2667.5" x2="1618" y2="2667.5" stroke="url(#paint9_linear_105_1020)"/>
<line x1="-182" y1="3268.5" x2="1618" y2="3268.5" stroke="url(#paint10_linear_105_1020)"/>
<line y1="5737.5" x2="1436" y2="5737.5" stroke="url(#paint11_linear_105_1020)"/>
<line y1="5135.5" x2="1436" y2="5135.5" stroke="url(#paint12_linear_105_1020)"/>
<line x1="718.997" y1="5136" x2="718.997" y2="5736" stroke="url(#paint13_linear_105_1020)"/>
<line y1="8297.5" x2="1436" y2="8297.5" stroke="url(#paint14_linear_105_1020)"/>
<rect x="709" y="2658" width="20" height="20" fill="#101010"/>
<circle cx="82" cy="2030" r="5" fill="#262626" fill-opacity="0.7"/>
<circle cx="295" cy="2030" r="5" fill="#262626" fill-opacity="0.7"/>
<circle cx="507" cy="2030" r="5" fill="#262626" fill-opacity="0.7"/>
<circle cx="719" cy="2030" r="5" fill="#262626" fill-opacity="0.7"/>
<circle cx="935" cy="2030" r="5" fill="#262626" fill-opacity="0.7"/>
<circle cx="1147" cy="2030" r="5" fill="#262626" fill-opacity="0.7"/>
<circle cx="1358" cy="2030" r="5" fill="#262626" fill-opacity="0.7"/>
<circle cx="719" cy="2668" r="5" fill="#262626" fill-opacity="0.7"/>
<rect x="709" y="3258" width="20" height="20" fill="#101010"/>
<circle cx="719" cy="3268" r="5" fill="#262626" fill-opacity="0.7"/>
<line x1="50.5" y1="1488" x2="50.5" y2="1738" stroke="#4F46E5"/>
<line x1="1381.5" y1="218" x2="1381.5" y2="468" stroke="#4F46E5"/>
<rect x="375.5" y="3377.5" width="1139" height="173" rx="29.5" stroke="#1F1F1F"/>
<rect x="-118.5" y="3377.5" width="470" height="173" rx="29.5" stroke="#1F1F1F"/>
<line x1="719" y1="3551" x2="719" y2="3377" stroke="#1F1F1F"/>
<line x1="559.5" y1="3679" x2="559.5" y2="3639" stroke="#1F1F1F"/>
<line x1="914.5" y1="3679" x2="914.5" y2="3639" stroke="#1F1F1F"/>
<line x1="1067" y1="3551" x2="1067" y2="3377" stroke="#1F1F1F"/>
<rect x="281.5" y="3614.5" width="933" height="85" rx="42.5" stroke="#2A2A2A"/>
<circle cx="719" cy="5736" r="5" fill="#262626" fill-opacity="0.7"/>
<rect x="709" y="5726" width="20" height="20" fill="#101010"/>
<rect x="709" y="5126" width="20" height="20" fill="#101010"/>
<circle cx="719" cy="5136" r="5" fill="#262626" fill-opacity="0.7"/>
<line x1="1380.5" y1="8956.01" x2="1380.5" y2="-0.0078125" stroke="#262626"/>
<circle cx="719" cy="5737" r="5" fill="#262626" fill-opacity="0.7"/>
<circle cx="719" cy="8298" r="5" fill="#262626" fill-opacity="0.7"/>
<line x1="1380.5" y1="6920" x2="1380.5" y2="7026" stroke="#262626"/>
</g>
<defs>
<linearGradient id="paint0_linear_105_1020" x1="-4.00049" y1="2031.5" x2="1463" y2="2031.5" gradientUnits="userSpaceOnUse">
<stop stop-color="#262626" stop-opacity="0.1"/>
<stop offset="0.500604" stop-color="#262626"/>
<stop offset="1" stop-color="#262626" stop-opacity="0.1"/>
</linearGradient>
<linearGradient id="paint1_linear_105_1020" x1="83.5" y1="1844" x2="83.5" y2="2212" gradientUnits="userSpaceOnUse">
<stop stop-color="#262626" stop-opacity="0.1"/>
<stop offset="0.4986" stop-color="#262626"/>
<stop offset="1" stop-color="#262626" stop-opacity="0.1"/>
</linearGradient>
<linearGradient id="paint2_linear_105_1020" x1="295.5" y1="1844" x2="295.5" y2="2212" gradientUnits="userSpaceOnUse">
<stop stop-color="#262626" stop-opacity="0.1"/>
<stop offset="0.4986" stop-color="#262626"/>
<stop offset="1" stop-color="#262626" stop-opacity="0.1"/>
</linearGradient>
<linearGradient id="paint3_linear_105_1020" x1="507.5" y1="1844" x2="507.5" y2="2212" gradientUnits="userSpaceOnUse">
<stop stop-color="#262626" stop-opacity="0.1"/>
<stop offset="0.4986" stop-color="#262626"/>
<stop offset="1" stop-color="#262626" stop-opacity="0.1"/>
</linearGradient>
<linearGradient id="paint4_linear_105_1020" x1="719.5" y1="1844" x2="719.5" y2="2212" gradientUnits="userSpaceOnUse">
<stop stop-color="#262626" stop-opacity="0.1"/>
<stop offset="0.4986" stop-color="#262626"/>
<stop offset="1" stop-color="#262626" stop-opacity="0.1"/>
</linearGradient>
<linearGradient id="paint5_linear_105_1020" x1="935.5" y1="1844" x2="935.5" y2="2212" gradientUnits="userSpaceOnUse">
<stop stop-color="#262626" stop-opacity="0.1"/>
<stop offset="0.4986" stop-color="#262626"/>
<stop offset="1" stop-color="#262626" stop-opacity="0.1"/>
</linearGradient>
<linearGradient id="paint6_linear_105_1020" x1="1147.5" y1="1844" x2="1147.5" y2="2212" gradientUnits="userSpaceOnUse">
<stop stop-color="#262626" stop-opacity="0.1"/>
<stop offset="0.4986" stop-color="#262626"/>
<stop offset="1" stop-color="#262626" stop-opacity="0.1"/>
</linearGradient>
<linearGradient id="paint7_linear_105_1020" x1="1358.5" y1="1844" x2="1358.5" y2="2212" gradientUnits="userSpaceOnUse">
<stop stop-color="#262626" stop-opacity="0.1"/>
<stop offset="0.4986" stop-color="#262626"/>
<stop offset="1" stop-color="#262626" stop-opacity="0.1"/>
</linearGradient>
<linearGradient id="paint8_linear_105_1020" x1="717.997" y1="2668" x2="717.997" y2="3268" gradientUnits="userSpaceOnUse">
<stop stop-color="#262626" stop-opacity="0.1"/>
<stop offset="0.49539" stop-color="#262626"/>
<stop offset="1" stop-color="#262626" stop-opacity="0.1"/>
</linearGradient>
<linearGradient id="paint9_linear_105_1020" x1="-182" y1="2668.5" x2="1618" y2="2668.5" gradientUnits="userSpaceOnUse">
<stop stop-color="#262626" stop-opacity="0.1"/>
<stop offset="0.51" stop-color="#262626"/>
<stop offset="1" stop-color="#262626" stop-opacity="0.1"/>
</linearGradient>
<linearGradient id="paint10_linear_105_1020" x1="-182" y1="3269.5" x2="1618" y2="3269.5" gradientUnits="userSpaceOnUse">
<stop stop-color="#262626" stop-opacity="0.1"/>
<stop offset="0.501551" stop-color="#262626"/>
<stop offset="1" stop-color="#262626" stop-opacity="0.1"/>
</linearGradient>
<linearGradient id="paint11_linear_105_1020" x1="0" y1="5738.5" x2="1436" y2="5738.5" gradientUnits="userSpaceOnUse">
<stop stop-color="#262626" stop-opacity="0.1"/>
<stop offset="0.501551" stop-color="#262626"/>
<stop offset="1" stop-color="#262626" stop-opacity="0.1"/>
</linearGradient>
<linearGradient id="paint12_linear_105_1020" x1="0" y1="5136.5" x2="1436" y2="5136.5" gradientUnits="userSpaceOnUse">
<stop stop-color="#262626" stop-opacity="0.1"/>
<stop offset="0.501551" stop-color="#262626"/>
<stop offset="1" stop-color="#262626" stop-opacity="0.1"/>
</linearGradient>
<linearGradient id="paint13_linear_105_1020" x1="717.997" y1="5136" x2="717.997" y2="5736" gradientUnits="userSpaceOnUse">
<stop stop-color="#262626" stop-opacity="0.1"/>
<stop offset="0.49539" stop-color="#262626"/>
<stop offset="1" stop-color="#262626" stop-opacity="0.1"/>
</linearGradient>
<linearGradient id="paint14_linear_105_1020" x1="0" y1="8298.5" x2="1436" y2="8298.5" gradientUnits="userSpaceOnUse">
<stop stop-color="#262626" stop-opacity="0.1"/>
<stop offset="0.501551" stop-color="#262626"/>
<stop offset="1" stop-color="#262626" stop-opacity="0.1"/>
</linearGradient>
<clipPath id="clip0_105_1020">
<rect width="1440" height="8857" fill="white"/>
</clipPath>
</defs>
</svg>
