<svg width="36" height="33" viewBox="0 0 36 33" fill="none" xmlns="http://www.w3.org/2000/svg">
<rect width="36" height="33" rx="4" fill="#222222"/>
<path d="M8.73635 9.55178C8.24457 9.04489 8 8.41747 8 7.67094C8 6.92442 8.24587 6.26938 8.73635 5.76105C9.22812 5.25417 9.86116 5 10.6368 5C11.4124 5 12.0206 5.25417 12.511 5.76105C13.0028 6.26793 13.2474 6.90553 13.2474 7.67094C13.2474 8.43635 13.0015 9.04489 12.511 9.55178C12.0192 10.0587 11.3954 10.3128 10.6368 10.3128C9.87817 10.3128 9.22812 10.0587 8.73635 9.55178ZM12.8341 12.4595V28H8.41198V12.4595H12.8341Z" fill="#FEFFFC"/>
<path d="M27.5547 13.9948C28.5187 15.1567 29 16.7515 29 18.7819V27.7257H24.8003V19.4122C24.8003 18.3883 24.5609 17.5924 24.0835 17.0259C23.6061 16.4595 22.9626 16.1749 22.157 16.1749C21.3513 16.1749 20.7078 16.4581 20.2304 17.0259C19.753 17.5924 19.5136 18.3883 19.5136 19.4122V27.7257H15.2891V12.4161H19.5136V14.4465C19.9413 13.7697 20.5181 13.2352 21.2427 12.8416C21.9673 12.448 22.7821 12.252 23.6885 12.252C25.3025 12.252 26.5921 12.8329 27.5547 13.9934V13.9948Z" fill="#FEFFFC"/>
</svg>
