<svg width="759" height="200" viewBox="0 0 759 200" fill="none" xmlns="http://www.w3.org/2000/svg">
<rect width="124.962" height="28.6022" rx="4" transform="matrix(0.731138 -0.682229 0.734186 0.678948 0 85.2524)" fill="#4F46E5"/>
<rect width="62.1092" height="28.6022" rx="4" transform="matrix(0.731138 -0.682229 0.734186 0.678948 29.2773 110.73)" fill="#4F46E5"/>
<rect width="125.103" height="28.6022" rx="4" transform="matrix(0.731138 -0.682229 0.734186 0.678948 10.8203 179.593)" fill="#4F46E5"/>
<path d="M255.661 77.2834C255.235 72.9865 253.406 69.6484 250.175 67.2692C246.943 64.8899 242.558 63.7003 237.018 63.7003C233.254 63.7003 230.075 64.233 227.483 65.2983C224.891 66.3281 222.902 67.7663 221.517 69.6129C220.168 71.4595 219.493 73.5547 219.493 75.8984C219.422 77.8516 219.83 79.5561 220.718 81.0121C221.641 82.468 222.902 83.7287 224.5 84.794C226.098 85.8239 227.945 86.7294 230.04 87.5107C232.135 88.2564 234.372 88.8956 236.751 89.4283L246.553 91.772C251.311 92.8374 255.679 94.2578 259.656 96.0334C263.634 97.8089 267.078 99.9929 269.99 102.585C272.902 105.178 275.157 108.232 276.755 111.747C278.388 115.263 279.223 119.293 279.259 123.839C279.223 130.515 277.518 136.303 274.145 141.204C270.807 146.069 265.977 149.851 259.656 152.55C253.371 155.213 245.789 156.545 236.911 156.545C228.104 156.545 220.434 155.195 213.9 152.496C207.401 149.798 202.323 145.803 198.665 140.511C195.043 135.185 193.143 128.597 192.966 120.749H215.285C215.533 124.407 216.581 127.461 218.428 129.911C220.31 132.326 222.813 134.155 225.938 135.398C229.099 136.605 232.668 137.209 236.645 137.209C240.551 137.209 243.942 136.641 246.819 135.504C249.731 134.368 251.986 132.788 253.584 130.763C255.182 128.739 255.981 126.413 255.981 123.786C255.981 121.335 255.253 119.276 253.797 117.607C252.376 115.937 250.281 114.517 247.511 113.345C244.777 112.173 241.421 111.108 237.444 110.149L225.565 107.166C216.368 104.929 209.106 101.431 203.779 96.6726C198.452 91.9141 195.807 85.5043 195.842 77.4432C195.807 70.8381 197.565 65.0675 201.116 60.1314C204.702 55.1953 209.621 51.3423 215.871 48.5724C222.121 45.8026 229.223 44.4176 237.178 44.4176C245.274 44.4176 252.341 45.8026 258.378 48.5724C264.45 51.3423 269.173 55.1953 272.547 60.1314C275.92 65.0675 277.661 70.7848 277.767 77.2834H255.661ZM337.866 73.1818V90.2273H288.594V73.1818H337.866ZM299.78 53.5795H322.471V129.858C322.471 131.953 322.791 133.587 323.43 134.759C324.069 135.895 324.957 136.694 326.094 137.156C327.265 137.617 328.615 137.848 330.142 137.848C331.207 137.848 332.273 137.759 333.338 137.582C334.403 137.369 335.22 137.209 335.788 137.102L339.357 153.988C338.221 154.343 336.623 154.751 334.563 155.213C332.503 155.71 330 156.012 327.052 156.119C321.584 156.332 316.79 155.604 312.67 153.935C308.586 152.266 305.408 149.673 303.135 146.158C300.863 142.642 299.744 138.203 299.78 132.841V53.5795ZM375.978 156.545C370.758 156.545 366.106 155.639 362.022 153.828C357.938 151.982 354.707 149.265 352.328 145.678C349.984 142.056 348.812 137.546 348.812 132.148C348.812 127.603 349.646 123.786 351.316 120.696C352.985 117.607 355.257 115.121 358.134 113.239C361.01 111.357 364.277 109.936 367.935 108.977C371.628 108.018 375.499 107.344 379.547 106.953C384.306 106.456 388.141 105.994 391.053 105.568C393.965 105.107 396.078 104.432 397.392 103.544C398.705 102.656 399.362 101.342 399.362 99.6023V99.2827C399.362 95.9091 398.297 93.299 396.166 91.4524C394.071 89.6058 391.088 88.6825 387.218 88.6825C383.134 88.6825 379.884 89.5881 377.47 91.3991C375.055 93.1747 373.457 95.4119 372.676 98.1108L351.688 96.4062C352.754 91.4347 354.849 87.1378 357.974 83.5156C361.099 79.858 365.129 77.0526 370.066 75.0994C375.037 73.1108 380.79 72.1165 387.324 72.1165C391.869 72.1165 396.22 72.6491 400.374 73.7145C404.565 74.7798 408.276 76.4311 411.507 78.6683C414.774 80.9055 417.349 83.782 419.231 87.2976C421.113 90.7777 422.054 94.9503 422.054 99.8153V155H400.534V143.654H399.895C398.581 146.211 396.823 148.466 394.622 150.419C392.42 152.337 389.774 153.846 386.685 154.947C383.595 156.012 380.026 156.545 375.978 156.545ZM382.477 140.884C385.815 140.884 388.762 140.227 391.319 138.913C393.876 137.564 395.882 135.753 397.338 133.48C398.794 131.207 399.522 128.633 399.522 125.756V117.074C398.812 117.536 397.835 117.962 396.593 118.352C395.385 118.707 394.018 119.045 392.491 119.364C390.964 119.648 389.437 119.915 387.91 120.163C386.383 120.376 384.998 120.572 383.755 120.749C381.092 121.14 378.766 121.761 376.777 122.614C374.789 123.466 373.244 124.62 372.143 126.076C371.042 127.496 370.492 129.272 370.492 131.403C370.492 134.492 371.61 136.854 373.847 138.487C376.12 140.085 378.997 140.884 382.477 140.884ZM483.178 73.1818V90.2273H433.906V73.1818H483.178ZM445.092 53.5795H467.784V129.858C467.784 131.953 468.104 133.587 468.743 134.759C469.382 135.895 470.27 136.694 471.406 137.156C472.578 137.617 473.927 137.848 475.454 137.848C476.52 137.848 477.585 137.759 478.65 137.582C479.716 137.369 480.532 137.209 481.101 137.102L484.67 153.988C483.533 154.343 481.935 154.751 479.876 155.213C477.816 155.71 475.312 156.012 472.365 156.119C466.896 156.332 462.102 155.604 457.983 153.935C453.899 152.266 450.721 149.673 448.448 146.158C446.175 142.642 445.057 138.203 445.092 132.841V53.5795ZM565.01 96.5128L544.235 97.7912C543.88 96.0156 543.117 94.4176 541.945 92.9972C540.773 91.5412 539.228 90.3871 537.311 89.5348C535.429 88.647 533.174 88.2031 530.546 88.2031C527.03 88.2031 524.065 88.9489 521.65 90.4403C519.235 91.8963 518.028 93.8494 518.028 96.2997C518.028 98.2528 518.809 99.9041 520.372 101.254C521.934 102.603 524.615 103.686 528.415 104.503L543.223 107.486C551.178 109.119 557.108 111.747 561.015 115.369C564.921 118.991 566.874 123.75 566.874 129.645C566.874 135.007 565.294 139.712 562.133 143.761C559.008 147.809 554.711 150.969 549.243 153.242C543.809 155.479 537.542 156.598 530.439 156.598C519.608 156.598 510.979 154.343 504.551 149.833C498.159 145.288 494.413 139.109 493.312 131.296L515.631 130.124C516.306 133.427 517.939 135.948 520.532 137.688C523.124 139.393 526.444 140.245 530.493 140.245C534.47 140.245 537.666 139.482 540.081 137.955C542.531 136.392 543.774 134.386 543.809 131.935C543.774 129.876 542.904 128.189 541.199 126.875C539.495 125.526 536.867 124.496 533.316 123.786L519.147 120.962C511.157 119.364 505.208 116.594 501.302 112.653C497.431 108.711 495.496 103.686 495.496 97.5781C495.496 92.3224 496.917 87.7947 499.757 83.995C502.634 80.1953 506.664 77.2656 511.849 75.206C517.069 73.1463 523.177 72.1165 530.173 72.1165C540.507 72.1165 548.639 74.3004 554.569 78.6683C560.535 83.0362 564.015 88.9844 565.01 96.5128ZM581.163 155V73.1818H603.855V155H581.163ZM592.562 62.6349C589.188 62.6349 586.294 61.5163 583.879 59.2791C581.5 57.0064 580.311 54.2898 580.311 51.1293C580.311 48.0043 581.5 45.3232 583.879 43.0859C586.294 40.8132 589.188 39.6768 592.562 39.6768C595.936 39.6768 598.812 40.8132 601.191 43.0859C603.606 45.3232 604.813 48.0043 604.813 51.1293C604.813 54.2898 603.606 57.0064 601.191 59.2791C598.812 61.5163 595.936 62.6349 592.562 62.6349ZM666.031 73.1818V90.2273H615.533V73.1818H666.031ZM627.092 155V67.2692C627.092 61.3388 628.246 56.4204 630.555 52.5142C632.898 48.6079 636.094 45.6783 640.143 43.7251C644.191 41.772 648.79 40.7954 653.939 40.7954C657.419 40.7954 660.597 41.0618 663.474 41.5945C666.386 42.1271 668.552 42.6065 669.972 43.0327L665.924 60.0781C665.036 59.794 663.935 59.5277 662.621 59.2791C661.343 59.0305 660.029 58.9062 658.68 58.9062C655.342 58.9062 653.016 59.6875 651.702 61.25C650.388 62.777 649.731 64.9254 649.731 67.6953V155H627.092ZM693.903 185.682C691.026 185.682 688.327 185.451 685.806 184.989C683.32 184.563 681.26 184.013 679.627 183.338L684.741 166.399C687.404 167.216 689.801 167.66 691.932 167.731C694.098 167.802 695.962 167.305 697.525 166.239C699.123 165.174 700.419 163.363 701.413 160.806L702.745 157.344L673.395 73.1818H697.258L714.197 133.267H715.05L732.148 73.1818H756.172L724.371 163.842C722.844 168.246 720.767 172.081 718.139 175.348C715.547 178.651 712.262 181.19 708.285 182.965C704.307 184.776 699.513 185.682 693.903 185.682Z" fill="#F0F0F0"/>
</svg>
