<svg width="521" height="521" viewBox="0 0 521 521" fill="none" xmlns="http://www.w3.org/2000/svg">
<circle cx="260.5" cy="260.5" r="260" stroke="#292929" stroke-opacity="0.7" stroke-dasharray="8 8"/>
<circle cx="261.25" cy="263.25" r="129.75" stroke="#292929" stroke-opacity="0.7" stroke-dasharray="8 8"/>
<circle cx="265.5" cy="262.5" r="195" stroke="#4F46E5" stroke-opacity="0.4" stroke-dasharray="8 8"/>
<rect x="89.5" y="155.5" width="203" height="41" rx="13.5" fill="#242424" stroke="#313131"/>
<rect x="135" y="237" width="204" height="42" rx="14" fill="#242424" fill-opacity="0.3"/>
<rect x="135.5" y="237.5" width="203" height="41" rx="13.5" stroke="#313131" stroke-opacity="0.3"/>
<rect x="209" y="320" width="204" height="42" rx="14" fill="#242424" fill-opacity="0.3"/>
<rect x="209.5" y="320.5" width="203" height="41" rx="13.5" stroke="#313131" stroke-opacity="0.3"/>
<path d="M133.618 165.545V183H129.927V165.545H133.618ZM136.586 183V169.909H140.046V172.219H140.199C140.472 171.452 140.926 170.847 141.563 170.403C142.199 169.96 142.961 169.739 143.847 169.739C144.745 169.739 145.509 169.963 146.14 170.412C146.77 170.855 147.191 171.457 147.401 172.219H147.537C147.804 171.469 148.287 170.869 148.986 170.42C149.691 169.966 150.523 169.739 151.483 169.739C152.705 169.739 153.696 170.128 154.458 170.906C155.225 171.679 155.608 172.776 155.608 174.196V183H151.986V174.912C151.986 174.185 151.793 173.639 151.407 173.276C151.02 172.912 150.537 172.73 149.958 172.73C149.299 172.73 148.784 172.94 148.415 173.361C148.046 173.776 147.861 174.324 147.861 175.006V183H144.341V174.835C144.341 174.193 144.157 173.682 143.787 173.301C143.424 172.92 142.944 172.73 142.347 172.73C141.944 172.73 141.58 172.832 141.256 173.037C140.938 173.236 140.685 173.517 140.498 173.881C140.31 174.239 140.216 174.659 140.216 175.142V183H136.586ZM158.476 187.909V169.909H162.056V172.108H162.218C162.377 171.756 162.607 171.398 162.908 171.034C163.215 170.665 163.613 170.358 164.101 170.114C164.596 169.864 165.209 169.739 165.942 169.739C166.897 169.739 167.777 169.989 168.584 170.489C169.391 170.983 170.036 171.73 170.519 172.73C171.002 173.724 171.243 174.972 171.243 176.472C171.243 177.932 171.007 179.165 170.536 180.17C170.07 181.17 169.434 181.929 168.627 182.446C167.826 182.957 166.928 183.213 165.934 183.213C165.229 183.213 164.63 183.097 164.135 182.864C163.647 182.631 163.246 182.338 162.934 181.986C162.621 181.628 162.382 181.267 162.218 180.903H162.107V187.909H158.476ZM162.03 176.455C162.03 177.233 162.138 177.912 162.354 178.491C162.57 179.071 162.882 179.523 163.292 179.847C163.701 180.165 164.198 180.324 164.783 180.324C165.374 180.324 165.874 180.162 166.283 179.838C166.692 179.509 167.002 179.054 167.212 178.474C167.428 177.889 167.536 177.216 167.536 176.455C167.536 175.699 167.431 175.034 167.221 174.46C167.01 173.886 166.701 173.437 166.292 173.114C165.882 172.79 165.38 172.628 164.783 172.628C164.192 172.628 163.692 172.784 163.283 173.097C162.88 173.409 162.57 173.852 162.354 174.426C162.138 175 162.03 175.676 162.03 176.455ZM177.294 165.545V183H173.664V165.545H177.294ZM186.169 183.256C184.822 183.256 183.663 182.983 182.691 182.438C181.725 181.886 180.981 181.108 180.458 180.102C179.936 179.091 179.674 177.895 179.674 176.514C179.674 175.168 179.936 173.986 180.458 172.969C180.981 171.952 181.717 171.159 182.666 170.591C183.62 170.023 184.74 169.739 186.024 169.739C186.887 169.739 187.691 169.878 188.436 170.156C189.186 170.429 189.839 170.841 190.396 171.392C190.958 171.943 191.396 172.636 191.708 173.472C192.021 174.301 192.177 175.273 192.177 176.386V177.384H181.123V175.134H188.76C188.76 174.611 188.646 174.148 188.419 173.744C188.191 173.341 187.876 173.026 187.473 172.798C187.075 172.565 186.612 172.449 186.083 172.449C185.532 172.449 185.044 172.577 184.618 172.832C184.197 173.082 183.868 173.42 183.629 173.847C183.39 174.267 183.268 174.736 183.262 175.253V177.392C183.262 178.04 183.382 178.599 183.62 179.071C183.865 179.543 184.208 179.906 184.652 180.162C185.095 180.418 185.62 180.545 186.228 180.545C186.632 180.545 187.001 180.489 187.336 180.375C187.672 180.261 187.958 180.091 188.197 179.864C188.436 179.636 188.618 179.358 188.743 179.028L192.1 179.25C191.93 180.057 191.581 180.761 191.052 181.364C190.529 181.96 189.853 182.426 189.024 182.761C188.2 183.091 187.248 183.256 186.169 183.256ZM194.547 183V169.909H198.007V172.219H198.16C198.433 171.452 198.887 170.847 199.524 170.403C200.16 169.96 200.922 169.739 201.808 169.739C202.706 169.739 203.47 169.963 204.1 170.412C204.731 170.855 205.152 171.457 205.362 172.219H205.498C205.765 171.469 206.248 170.869 206.947 170.42C207.652 169.966 208.484 169.739 209.444 169.739C210.666 169.739 211.657 170.128 212.419 170.906C213.186 171.679 213.569 172.776 213.569 174.196V183H209.947V174.912C209.947 174.185 209.754 173.639 209.368 173.276C208.981 172.912 208.498 172.73 207.919 172.73C207.26 172.73 206.745 172.94 206.376 173.361C206.007 173.776 205.822 174.324 205.822 175.006V183H202.302V174.835C202.302 174.193 202.118 173.682 201.748 173.301C201.385 172.92 200.904 172.73 200.308 172.73C199.904 172.73 199.541 172.832 199.217 173.037C198.899 173.236 198.646 173.517 198.458 173.881C198.271 174.239 198.177 174.659 198.177 175.142V183H194.547ZM222.403 183.256C221.056 183.256 219.897 182.983 218.926 182.438C217.96 181.886 217.216 181.108 216.693 180.102C216.17 179.091 215.909 177.895 215.909 176.514C215.909 175.168 216.17 173.986 216.693 172.969C217.216 171.952 217.951 171.159 218.9 170.591C219.855 170.023 220.974 169.739 222.258 169.739C223.122 169.739 223.926 169.878 224.67 170.156C225.42 170.429 226.074 170.841 226.63 171.392C227.193 171.943 227.63 172.636 227.943 173.472C228.255 174.301 228.412 175.273 228.412 176.386V177.384H217.358V175.134H224.994C224.994 174.611 224.88 174.148 224.653 173.744C224.426 173.341 224.11 173.026 223.707 172.798C223.309 172.565 222.846 172.449 222.318 172.449C221.767 172.449 221.278 172.577 220.852 172.832C220.431 173.082 220.102 173.42 219.863 173.847C219.625 174.267 219.502 174.736 219.497 175.253V177.392C219.497 178.04 219.616 178.599 219.855 179.071C220.099 179.543 220.443 179.906 220.886 180.162C221.329 180.418 221.855 180.545 222.463 180.545C222.866 180.545 223.235 180.489 223.571 180.375C223.906 180.261 224.193 180.091 224.431 179.864C224.67 179.636 224.852 179.358 224.977 179.028L228.335 179.25C228.164 180.057 227.815 180.761 227.287 181.364C226.764 181.96 226.088 182.426 225.258 182.761C224.434 183.091 223.483 183.256 222.403 183.256ZM234.412 175.432V183H230.781V169.909H234.241V172.219H234.395C234.684 171.457 235.17 170.855 235.852 170.412C236.534 169.963 237.36 169.739 238.332 169.739C239.241 169.739 240.034 169.938 240.71 170.335C241.386 170.733 241.912 171.301 242.287 172.04C242.662 172.773 242.849 173.648 242.849 174.665V183H239.218V175.312C239.224 174.511 239.02 173.886 238.605 173.438C238.19 172.983 237.619 172.756 236.892 172.756C236.403 172.756 235.971 172.861 235.596 173.071C235.227 173.281 234.937 173.588 234.727 173.991C234.522 174.389 234.417 174.869 234.412 175.432ZM252.674 169.909V172.636H244.79V169.909H252.674ZM246.58 166.773H250.211V178.977C250.211 179.312 250.262 179.574 250.364 179.761C250.466 179.943 250.608 180.071 250.79 180.145C250.978 180.219 251.194 180.256 251.438 180.256C251.608 180.256 251.779 180.241 251.949 180.213C252.12 180.179 252.25 180.153 252.341 180.136L252.912 182.838C252.73 182.895 252.475 182.96 252.145 183.034C251.816 183.114 251.415 183.162 250.944 183.179C250.069 183.213 249.301 183.097 248.642 182.83C247.989 182.562 247.48 182.148 247.117 181.585C246.753 181.023 246.574 180.312 246.58 179.455V166.773Z" fill="white"/>
<path d="M202.588 265H198.634L204.659 247.545H209.415L215.432 265H211.477L207.105 251.534H206.969L202.588 265ZM202.341 258.139H211.682V261.02H202.341V258.139ZM221.679 265.213C220.685 265.213 219.784 264.957 218.977 264.446C218.176 263.929 217.54 263.17 217.068 262.17C216.602 261.165 216.369 259.932 216.369 258.472C216.369 256.972 216.611 255.724 217.094 254.73C217.577 253.73 218.219 252.983 219.02 252.489C219.827 251.989 220.71 251.739 221.67 251.739C222.403 251.739 223.014 251.864 223.503 252.114C223.997 252.358 224.395 252.665 224.696 253.034C225.003 253.398 225.236 253.756 225.395 254.108H225.506V247.545H229.128V265H225.548V262.903H225.395C225.224 263.267 224.983 263.628 224.67 263.986C224.364 264.338 223.963 264.631 223.469 264.864C222.98 265.097 222.384 265.213 221.679 265.213ZM222.83 262.324C223.415 262.324 223.909 262.165 224.312 261.847C224.722 261.523 225.034 261.071 225.25 260.491C225.472 259.912 225.582 259.233 225.582 258.455C225.582 257.676 225.474 257 225.259 256.426C225.043 255.852 224.73 255.409 224.321 255.097C223.912 254.784 223.415 254.628 222.83 254.628C222.233 254.628 221.73 254.79 221.321 255.114C220.912 255.437 220.602 255.886 220.392 256.46C220.182 257.034 220.077 257.699 220.077 258.455C220.077 259.216 220.182 259.889 220.392 260.474C220.608 261.054 220.918 261.509 221.321 261.838C221.73 262.162 222.233 262.324 222.83 262.324ZM232.113 251.909H235.744V265.648C235.744 266.659 235.545 267.477 235.147 268.102C234.749 268.727 234.178 269.185 233.434 269.474C232.695 269.764 231.812 269.909 230.783 269.909C230.658 269.909 230.539 269.906 230.425 269.901C230.306 269.901 230.181 269.898 230.05 269.892V267.054C230.147 267.06 230.232 267.062 230.306 267.062C230.374 267.068 230.448 267.071 230.528 267.071C231.113 267.071 231.522 266.946 231.755 266.696C231.994 266.452 232.113 266.082 232.113 265.588V251.909ZM233.92 250.222C233.386 250.222 232.925 250.043 232.539 249.685C232.153 249.321 231.96 248.886 231.96 248.381C231.96 247.881 232.153 247.452 232.539 247.094C232.925 246.73 233.386 246.548 233.92 246.548C234.465 246.548 234.928 246.73 235.309 247.094C235.695 247.452 235.888 247.881 235.888 248.381C235.888 248.886 235.695 249.321 235.309 249.685C234.928 250.043 234.465 250.222 233.92 250.222ZM247.047 259.426V251.909H250.678V265H247.192V262.622H247.055C246.76 263.389 246.268 264.006 245.581 264.472C244.899 264.937 244.067 265.17 243.084 265.17C242.209 265.17 241.439 264.972 240.774 264.574C240.109 264.176 239.589 263.611 239.214 262.878C238.845 262.145 238.658 261.267 238.652 260.244V251.909H242.283V259.597C242.288 260.369 242.496 260.98 242.905 261.429C243.314 261.878 243.862 262.102 244.55 262.102C244.987 262.102 245.396 262.003 245.777 261.804C246.158 261.599 246.464 261.298 246.697 260.901C246.936 260.503 247.053 260.011 247.047 259.426ZM264.474 255.642L261.15 255.847C261.093 255.562 260.971 255.307 260.783 255.08C260.596 254.847 260.349 254.662 260.042 254.526C259.741 254.384 259.38 254.312 258.96 254.312C258.397 254.312 257.923 254.432 257.536 254.67C257.15 254.903 256.957 255.216 256.957 255.608C256.957 255.92 257.082 256.185 257.332 256.401C257.582 256.616 258.011 256.79 258.619 256.92L260.988 257.398C262.261 257.659 263.21 258.08 263.835 258.659C264.46 259.239 264.772 260 264.772 260.943C264.772 261.801 264.519 262.554 264.013 263.202C263.513 263.849 262.826 264.355 261.951 264.719C261.082 265.077 260.079 265.256 258.942 265.256C257.21 265.256 255.829 264.895 254.8 264.173C253.778 263.446 253.178 262.457 253.002 261.207L256.573 261.02C256.681 261.548 256.942 261.952 257.357 262.23C257.772 262.503 258.303 262.639 258.951 262.639C259.587 262.639 260.099 262.517 260.485 262.273C260.877 262.023 261.076 261.702 261.082 261.31C261.076 260.98 260.937 260.71 260.664 260.5C260.391 260.284 259.971 260.119 259.403 260.006L257.136 259.554C255.857 259.298 254.906 258.855 254.281 258.224C253.661 257.594 253.352 256.79 253.352 255.812C253.352 254.972 253.579 254.247 254.033 253.639C254.494 253.031 255.138 252.562 255.968 252.233C256.803 251.903 257.781 251.739 258.9 251.739C260.553 251.739 261.854 252.088 262.803 252.787C263.758 253.486 264.315 254.437 264.474 255.642ZM274.021 251.909V254.636H266.138V251.909H274.021ZM267.928 248.773H271.558V260.977C271.558 261.312 271.609 261.574 271.712 261.761C271.814 261.943 271.956 262.071 272.138 262.145C272.325 262.219 272.541 262.256 272.786 262.256C272.956 262.256 273.126 262.241 273.297 262.213C273.467 262.179 273.598 262.153 273.689 262.136L274.26 264.838C274.078 264.895 273.822 264.96 273.493 265.034C273.163 265.114 272.763 265.162 272.291 265.179C271.416 265.213 270.649 265.097 269.99 264.83C269.337 264.562 268.828 264.148 268.464 263.585C268.101 263.023 267.922 262.312 267.928 261.455V248.773Z" fill="white" fill-opacity="0.3"/>
<path d="M261.892 348V330.545H273.653V333.588H265.582V337.747H273.048V340.79H265.582V344.957H273.688V348H261.892ZM288.724 334.909L284.147 348H280.056L275.479 334.909H279.315L282.033 344.276H282.17L284.88 334.909H288.724ZM293.963 348.247C293.128 348.247 292.384 348.102 291.73 347.812C291.077 347.517 290.56 347.082 290.179 346.509C289.804 345.929 289.616 345.207 289.616 344.344C289.616 343.616 289.75 343.006 290.017 342.511C290.284 342.017 290.648 341.619 291.108 341.318C291.568 341.017 292.091 340.79 292.676 340.636C293.267 340.483 293.886 340.375 294.534 340.312C295.295 340.233 295.909 340.159 296.375 340.091C296.841 340.017 297.179 339.909 297.389 339.767C297.599 339.625 297.705 339.415 297.705 339.136V339.085C297.705 338.545 297.534 338.128 297.193 337.832C296.858 337.537 296.381 337.389 295.761 337.389C295.108 337.389 294.588 337.534 294.202 337.824C293.815 338.108 293.56 338.466 293.435 338.898L290.077 338.625C290.247 337.83 290.582 337.142 291.082 336.562C291.582 335.977 292.227 335.528 293.017 335.216C293.813 334.898 294.733 334.739 295.778 334.739C296.506 334.739 297.202 334.824 297.866 334.994C298.537 335.165 299.131 335.429 299.648 335.787C300.17 336.145 300.582 336.605 300.884 337.168C301.185 337.724 301.335 338.392 301.335 339.17V348H297.892V346.185H297.79C297.58 346.594 297.298 346.955 296.946 347.267C296.594 347.574 296.17 347.815 295.676 347.991C295.182 348.162 294.611 348.247 293.963 348.247ZM295.003 345.741C295.537 345.741 296.009 345.636 296.418 345.426C296.827 345.21 297.148 344.92 297.381 344.557C297.614 344.193 297.73 343.781 297.73 343.321V341.932C297.616 342.006 297.46 342.074 297.261 342.136C297.068 342.193 296.849 342.247 296.605 342.298C296.361 342.344 296.116 342.386 295.872 342.426C295.628 342.46 295.406 342.491 295.207 342.52C294.781 342.582 294.409 342.682 294.091 342.818C293.773 342.955 293.526 343.139 293.349 343.372C293.173 343.599 293.085 343.884 293.085 344.224C293.085 344.719 293.264 345.097 293.622 345.358C293.986 345.614 294.446 345.741 295.003 345.741ZM307.783 330.545V348H304.152V330.545H307.783ZM319.086 342.426V334.909H322.717V348H319.231V345.622H319.094C318.799 346.389 318.308 347.006 317.62 347.472C316.938 347.937 316.106 348.17 315.123 348.17C314.248 348.17 313.478 347.972 312.813 347.574C312.148 347.176 311.629 346.611 311.254 345.878C310.884 345.145 310.697 344.267 310.691 343.244V334.909H314.322V342.597C314.327 343.369 314.535 343.98 314.944 344.429C315.353 344.878 315.901 345.102 316.589 345.102C317.026 345.102 317.435 345.003 317.816 344.804C318.197 344.599 318.504 344.298 318.737 343.901C318.975 343.503 319.092 343.011 319.086 342.426ZM329.354 348.247C328.518 348.247 327.774 348.102 327.121 347.812C326.467 347.517 325.95 347.082 325.57 346.509C325.195 345.929 325.007 345.207 325.007 344.344C325.007 343.616 325.141 343.006 325.408 342.511C325.675 342.017 326.038 341.619 326.499 341.318C326.959 341.017 327.482 340.79 328.067 340.636C328.658 340.483 329.277 340.375 329.925 340.312C330.686 340.233 331.3 340.159 331.766 340.091C332.232 340.017 332.57 339.909 332.78 339.767C332.99 339.625 333.095 339.415 333.095 339.136V339.085C333.095 338.545 332.925 338.128 332.584 337.832C332.249 337.537 331.771 337.389 331.152 337.389C330.499 337.389 329.979 337.534 329.592 337.824C329.206 338.108 328.95 338.466 328.825 338.898L325.467 338.625C325.638 337.83 325.973 337.142 326.473 336.562C326.973 335.977 327.618 335.528 328.408 335.216C329.203 334.898 330.124 334.739 331.169 334.739C331.896 334.739 332.592 334.824 333.257 334.994C333.928 335.165 334.521 335.429 335.038 335.787C335.561 336.145 335.973 336.605 336.274 337.168C336.575 337.724 336.726 338.392 336.726 339.17V348H333.283V346.185H333.18C332.97 346.594 332.689 346.955 332.337 347.267C331.984 347.574 331.561 347.815 331.067 347.991C330.572 348.162 330.001 348.247 329.354 348.247ZM330.393 345.741C330.928 345.741 331.399 345.636 331.808 345.426C332.217 345.21 332.538 344.92 332.771 344.557C333.004 344.193 333.121 343.781 333.121 343.321V341.932C333.007 342.006 332.851 342.074 332.652 342.136C332.459 342.193 332.24 342.247 331.996 342.298C331.751 342.344 331.507 342.386 331.263 342.426C331.018 342.46 330.797 342.491 330.598 342.52C330.172 342.582 329.8 342.682 329.482 342.818C329.163 342.955 328.916 343.139 328.74 343.372C328.564 343.599 328.476 343.884 328.476 344.224C328.476 344.719 328.655 345.097 329.013 345.358C329.376 345.614 329.837 345.741 330.393 345.741ZM346.506 334.909V337.636H338.622V334.909H346.506ZM340.412 331.773H344.043V343.977C344.043 344.312 344.094 344.574 344.196 344.761C344.298 344.943 344.44 345.071 344.622 345.145C344.81 345.219 345.026 345.256 345.27 345.256C345.44 345.256 345.611 345.241 345.781 345.213C345.952 345.179 346.082 345.153 346.173 345.136L346.744 347.838C346.563 347.895 346.307 347.96 345.977 348.034C345.648 348.114 345.247 348.162 344.776 348.179C343.901 348.213 343.134 348.097 342.474 347.83C341.821 347.562 341.313 347.148 340.949 346.585C340.585 346.023 340.406 345.312 340.412 344.455V331.773ZM354.696 348.256C353.349 348.256 352.19 347.983 351.219 347.438C350.253 346.886 349.509 346.108 348.986 345.102C348.463 344.091 348.202 342.895 348.202 341.514C348.202 340.168 348.463 338.986 348.986 337.969C349.509 336.952 350.244 336.159 351.193 335.591C352.148 335.023 353.267 334.739 354.551 334.739C355.415 334.739 356.219 334.878 356.963 335.156C357.713 335.429 358.366 335.841 358.923 336.392C359.486 336.943 359.923 337.636 360.236 338.472C360.548 339.301 360.705 340.273 360.705 341.386V342.384H349.651V340.134H357.287C357.287 339.611 357.173 339.148 356.946 338.744C356.719 338.341 356.403 338.026 356 337.798C355.602 337.565 355.139 337.449 354.611 337.449C354.06 337.449 353.571 337.577 353.145 337.832C352.724 338.082 352.395 338.42 352.156 338.847C351.918 339.267 351.795 339.736 351.79 340.253V342.392C351.79 343.04 351.909 343.599 352.148 344.071C352.392 344.543 352.736 344.906 353.179 345.162C353.622 345.418 354.148 345.545 354.756 345.545C355.159 345.545 355.528 345.489 355.864 345.375C356.199 345.261 356.486 345.091 356.724 344.864C356.963 344.636 357.145 344.358 357.27 344.028L360.628 344.25C360.457 345.057 360.108 345.761 359.58 346.364C359.057 346.96 358.381 347.426 357.551 347.761C356.727 348.091 355.776 348.256 354.696 348.256Z" fill="white" fill-opacity="0.3"/>
<path d="M283.793 234.707C284.183 235.098 284.817 235.098 285.207 234.707L291.571 228.343C291.962 227.953 291.962 227.319 291.571 226.929C291.181 226.538 290.547 226.538 290.157 226.929L284.5 232.586L278.843 226.929C278.453 226.538 277.819 226.538 277.429 226.929C277.038 227.319 277.038 227.953 277.429 228.343L283.793 234.707ZM209 211H228V209H209V211ZM228 211H268.5V209H228V211ZM283.5 226V234H285.5V226H283.5ZM268.5 211C276.784 211 283.5 217.716 283.5 226H285.5C285.5 216.611 277.889 209 268.5 209V211ZM197.5 199.5C197.5 205.851 202.649 211 209 211V209C203.753 209 199.5 204.747 199.5 199.5H197.5Z" fill="white"/>
<path d="M369.293 317.207C369.683 317.598 370.317 317.598 370.707 317.207L377.071 310.843C377.462 310.453 377.462 309.819 377.071 309.429C376.681 309.038 376.047 309.038 375.657 309.429L370 315.086L364.343 309.429C363.953 309.038 363.319 309.038 362.929 309.429C362.538 309.819 362.538 310.453 362.929 310.843L369.293 317.207ZM294.5 293.5H313.5V291.5H294.5V293.5ZM313.5 293.5H354V291.5H313.5V293.5ZM369 308.5V316.5H371V308.5H369ZM354 293.5C362.284 293.5 369 300.216 369 308.5H371C371 299.111 363.389 291.5 354 291.5V293.5ZM283 282C283 288.351 288.149 293.5 294.5 293.5V291.5C289.253 291.5 285 287.247 285 282H283Z" fill="white" fill-opacity="0.3"/>
</svg>
